<svg xmlns="http://www.w3.org/2000/svg" xmlns:xlink="http://www.w3.org/1999/xlink" version="1.1" x="0px" y="0px" viewBox="0 0 100 125" style="enable-background:new 0 0 100 100;" xml:space="preserve"><style type="text/css">
	.st0{fill:none;}
	.st1{fill:#010101;}
</style><g><path class="st0" d="M37.4,59.3c-0.8,0.8-1.3,1.7-1.5,2.8c-0.1,0.6-0.4,1.2-0.7,1.7c-0.2,0.3-0.5,0.7-0.8,1c-0.2,0.2-0.2,0.5,0,0.8   c0.2,0.2,0.5,0.2,0.8,0c0.1,0,0.2-0.1,0.2-0.2c0.8-0.4,1.6-1,2.5-1.3c1.2-0.3,2.1-0.8,3-1.7c4.5-4.5,9-9,13.6-13.5   c0.1-0.1,0.2-0.3,0.2-0.3c-1.2-1.2-2.2-2.3-3.4-3.4C46.8,49.9,42.1,54.6,37.4,59.3z"/><path d="M52.1,77.3c-0.5,0-0.5,0.3-0.5,0.7c0,5.7,0,11.4,0,17c0.8,0,1.5,0,2.3,0c0.2-0.1,0.4-0.1,0.6-0.2c2.6-0.5,5.2-0.8,7.7-1.5   c3.1-0.8,6.1-2,9-3.6c-3-5.1-5.9-10.2-8.9-15.3C59,76.1,55.7,77,52.1,77.3z"/><path d="M48.4,22.7c0-5.9,0-11.8,0-17.7c-0.8,0-1.5,0-2.3,0c-0.2,0.1-0.4,0.1-0.6,0.2C43,5.6,40.4,6,37.8,6.6c-3.1,0.8-6.1,2-9,3.6   c3,5.1,5.9,10.2,8.8,15.3C41.1,23.9,44.6,22.9,48.4,22.7z"/><path d="M25.6,37.7c-5.1-3-10.2-5.9-15.3-8.8C8,32.9,6.6,37.1,5.7,41.6C5.4,43,5.2,44.5,5,46c0,0.8,0,1.6,0,2.5   c5.9,0,11.7,0,17.7,0C22.9,44.6,23.9,41.1,25.6,37.7z"/><path d="M71.2,10.2c-0.2-0.1-0.4-0.2-0.5-0.3c-3.9-2-7.9-3.4-12.2-4.2C57,5.4,55.5,5.2,54,5c-0.8,0-1.6,0-2.5,0   c0,5.9,0,11.7,0,17.7c3.8,0.2,7.4,1.2,10.8,2.9C65.3,20.4,68.2,15.3,71.2,10.2z"/><path d="M28.8,89.7c0.2,0.1,0.3,0.2,0.4,0.2c3.6,1.9,7.5,3.3,11.5,4.1c1.8,0.4,3.6,0.6,5.4,0.9c0.8,0,1.5,0,2.3,0   c0-5.9,0-11.7,0-17.7c-3.8-0.2-7.4-1.2-10.8-2.9C34.7,79.6,31.8,84.6,28.8,89.7z"/><path d="M22.7,51.6c-5.9,0-11.8,0-17.7,0c0,0.8,0,1.5,0,2.3c0.1,0.2,0.1,0.4,0.2,0.6c0.5,2.6,0.8,5.2,1.5,7.8c0.8,3.1,2,6,3.6,8.9   c5.1-3,10.2-5.9,15.3-8.9C23.8,58.9,22.9,55.4,22.7,51.6z"/><path d="M94.8,45.6c-0.4-2.4-0.7-4.8-1.3-7.1c-0.8-3.3-2.1-6.5-3.8-9.6c-5.1,3-10.2,5.9-15.2,8.8c0.6,1.9,1.3,3.6,1.8,5.4   c0.5,1.8,0.7,3.6,1.1,5.5c5.8,0,11.6,0,17.5,0c0-0.8,0-1.5,0-2.3C94.9,45.9,94.9,45.8,94.8,45.6z"/><path d="M77.2,52.3c-0.1,1.1-0.2,2.3-0.5,3.4c-0.6,2.3-1.4,4.5-2.1,6.8c4.9,2.8,10,5.8,15.1,8.7c1.7-2.6,3.9-8.7,4.6-12.7   c0.2-1.5,0.5-2.9,0.7-4.4c0-0.8,0-1.6,0-2.5c-5.7,0-11.4,0-17,0C77.4,51.5,77.3,51.8,77.2,52.3z"/><path d="M65,72.9c3,5.1,5.9,10.2,8.9,15.3c5.9-3.7,10.6-8.5,14.4-14.4c-5.2-3-10.2-5.9-15.4-8.9C70.8,68.2,68.1,70.8,65,72.9z"/><path d="M72.9,35c5.1-3,10.2-5.9,15.3-8.9c-3.8-5.9-8.5-10.7-14.4-14.4c-3,5.2-5.9,10.2-8.9,15.3C68.2,29.2,70.8,31.8,72.9,35z"/><path d="M30.7,30.7c1.3-1.3,2.8-2.5,4.3-3.7c-2.9-5-5.8-10.1-8.8-15.2c-5.9,3.7-10.7,8.5-14.4,14.4c5.2,3,10.2,5.9,15.2,8.8   C28.2,33.4,29.4,32,30.7,30.7z"/><path d="M27.1,65c-5.1,3-10.2,5.9-15.3,8.9c3.7,5.9,8.5,10.7,14.4,14.4c3-5.2,5.9-10.2,8.9-15.3C31.8,70.8,29.2,68.2,27.1,65z"/><path class="st1" d="M50.5,44c-0.4,0.3-0.6,0.5-0.8,0.7C45.4,49,41,53.4,36.6,57.8c-1,1-1.8,2.1-2.2,3.5c-0.2,0.8-0.7,1.5-1.1,2.2   c-0.1,0.1-0.2,0.2-0.2,0.3c-0.7,0.9-0.6,2.1,0.2,2.9c0,0,0.1,0.1,0.1,0.1c0.8,0.8,1.9,0.8,2.8,0.2c0,0,0,0,0,0   c0.7-0.5,1.3-1.1,2-1.2c1.6-0.3,2.9-1.2,4-2.3c4.5-4.3,8.8-8.7,13.3-13.1c0.2-0.2,0.4-0.3,0.7-0.7c0.2,0.3,0.3,0.5,0.5,0.7   c0.8,0.9,1.8,0.8,2.7,0c0.5-0.5,0.9-0.9,1.4-1.4c1.1-1.1,1.4-1.7,0.4-3c0.9-0.9,1.9-1.8,2.8-2.7c1.3-1.3,2.8-2.4,3.4-4.3   c0.2-0.5,0.2-0.9,0.1-1.4c-0.3-2.2-1.5-3.3-2.5-4.1c-1.1-0.8-2.5-1-3.8-0.5c-1.4,0.5-2.3,1.5-3.3,2.5c-1.2,1.2-2.4,2.4-3.6,3.6   c-1.2-0.8-1.9-0.7-2.8,0.2c-0.6,0.6-1.2,1.1-1.7,1.7c-0.6,0.6-0.7,1.6-0.1,2.2C49.7,43.5,50.1,43.7,50.5,44z M51.4,45.3   c1.1,1.1,2.2,2.2,3.4,3.4c0,0-0.1,0.2-0.2,0.3c-4.5,4.5-9,9-13.6,13.5c-0.8,0.8-1.8,1.4-3,1.7c-0.9,0.2-1.7,0.8-2.5,1.3   c-0.1,0-0.2,0.1-0.2,0.2c-0.2,0.2-0.6,0.2-0.8,0c-0.2-0.2-0.2-0.5,0-0.8c0.3-0.3,0.5-0.7,0.8-1c0.3-0.5,0.6-1.1,0.7-1.7   c0.2-1.1,0.7-2,1.5-2.8C42.1,54.6,46.8,49.9,51.4,45.3z"/></g><text x="0" y="115" fill="#000000" font-size="5px" font-weight="bold" font-family="'Helvetica Neue', Helvetica, Arial-Unicode, Arial, Sans-serif">Created by Roselin Christina.S</text><text x="0" y="120" fill="#000000" font-size="5px" font-weight="bold" font-family="'Helvetica Neue', Helvetica, Arial-Unicode, Arial, Sans-serif">from the Noun Project</text></svg>