<svg width="68" height="66" viewBox="0 0 68 66" fill="none" xmlns="http://www.w3.org/2000/svg">
<path d="M23.0238 43.2616L23.0241 43.2618L23.0304 43.2516C23.2614 42.8778 23.5085 42.4054 23.5927 41.9177C23.7335 41.1678 24.0832 40.5536 24.6541 39.9995L24.655 39.9986C28.1472 36.6091 31.6416 33.2175 34.9925 29.8256C35.5148 30.3002 35.9885 30.7738 36.4837 31.2689C36.7247 31.5099 36.9708 31.7559 37.2301 32.0097C37.2289 32.011 37.2277 32.0122 37.2265 32.0134C33.7505 35.3139 30.3501 38.6142 26.9509 41.9135L26.9503 41.914C26.3031 42.5422 25.6632 42.8874 24.7988 43.0972L24.7897 43.0994L24.7808 43.1022C24.4167 43.22 24.0782 43.3949 23.763 43.571C23.6691 43.6235 23.5783 43.6755 23.4894 43.7263C23.2728 43.8503 23.0679 43.9675 22.8597 44.0685L22.7189 44.1369V44.2063L22.6819 44.2302C22.5353 44.3251 22.4487 44.306 22.4033 44.2739C22.3618 44.2064 22.35 44.1535 22.35 44.1193C22.35 44.0859 22.3604 44.059 22.3874 44.0328C22.6304 43.797 22.8676 43.489 23.0238 43.2616Z" fill="#FCDC02" stroke="#D7D8D9" stroke-width="0.5"/>
<path d="M35.5867 53.27H35.5968L35.6068 53.2692C38.2817 53.0528 40.7434 52.4149 43.1983 51.219C44.2902 53.0227 45.3653 54.8266 46.4408 56.6313L46.441 56.6317C47.5104 58.426 48.5802 60.2211 49.6668 62.0164C47.5657 63.1187 45.3959 63.95 43.157 64.5108L43.157 64.5108L43.1522 64.5121C41.8883 64.8555 40.5997 65.0648 39.2852 65.2782C38.6476 65.3818 38.004 65.4863 37.3541 65.6076L37.3211 65.6137L37.2909 65.6284C37.243 65.6516 37.1929 65.6646 37.1144 65.6837L37.1074 65.6854C37.0491 65.6995 36.9737 65.7178 36.8941 65.75H36.8937H36.8902H36.8867H36.8832H36.8797H36.8762H36.8727H36.8692H36.8657H36.8622H36.8587H36.8552H36.8517H36.8482H36.8447H36.8412H36.8377H36.8342H36.8307H36.8272H36.8237H36.8202H36.8168H36.8133H36.8098H36.8063H36.8028H36.7994H36.7959H36.7924H36.7889H36.7855H36.782H36.7785H36.7751H36.7716H36.7681H36.7647H36.7612H36.7578H36.7543H36.7509H36.7474H36.7439H36.7405H36.737H36.7336H36.7301H36.7267H36.7233H36.7198H36.7164H36.7129H36.7095H36.706H36.7026H36.6992H36.6957H36.6923H36.6889H36.6854H36.682H36.6786H36.6751H36.6717H36.6683H36.6649H36.6614H36.658H36.6546H36.6512H36.6478H36.6444H36.6409H36.6375H36.6341H36.6307H36.6273H36.6239H36.6205H36.6171H36.6136H36.6102H36.6068H36.6034H36.6H36.5966H36.5932H36.5898H36.5864H36.583H36.5796H36.5762H36.5728H36.5694H36.5661H36.5627H36.5593H36.5559H36.5525H36.5491H36.5457H36.5423H36.5389H36.5356H36.5322H36.5288H36.5254H36.522H36.5187H36.5153H36.5119H36.5085H36.5051H36.5018H36.4984H36.495H36.4916H36.4883H36.4849H36.4815H36.4782H36.4748H36.4714H36.4681H36.4647H36.4613H36.458H36.4546H36.4512H36.4479H36.4445H36.4412H36.4378H36.4344H36.4311H36.4277H36.4244H36.421H36.4177H36.4143H36.4109H36.4076H36.4042H36.4009H36.3975H36.3942H36.3908H36.3875H36.3841H36.3808H36.3774H36.3741H36.3707H36.3674H36.364H36.3607H36.3574H36.354H36.3507H36.3473H36.344H36.3406H36.3373H36.334H36.3306H36.3273H36.3239H36.3206H36.3173H36.3139H36.3106H36.3073H36.3039H36.3006H36.2972H36.2939H36.2906H36.2872H36.2839H36.2806H36.2772H36.2739H36.2706H36.2672H36.2639H36.2606H36.2573H36.2539H36.2506H36.2473H36.2439H36.2406H36.2373H36.234H36.2306H36.2273H36.224H36.2206H36.2173H36.214H36.2107H36.2073H36.204H36.2007H36.1974H36.194H36.1907H36.1874H36.1841H36.1807H36.1774H36.1741H36.1708H36.1675H36.1641H36.1608H36.1575H36.1542H36.1508H36.1475H36.1442H36.1409H36.1376H36.1342H36.1309H36.1276H36.1243H36.1209H36.1176H36.1143H36.111H36.1077H36.1043H36.101H36.0977H36.0944H36.0911H36.0877H36.0844H36.0811H36.0778H36.0745H36.0711H36.0678H36.0645H36.0612H36.0579H36.0545H36.0512H36.0479H36.0446H36.0413H36.0379H36.0346H36.0313H36.028H36.0247H36.0213H36.018H36.0147H36.0114H36.008H36.0047H36.0014H35.9981H35.9948H35.9914H35.9881H35.9848H35.9815H35.9781H35.9748H35.9715H35.9682H35.9648H35.9615H35.9582H35.9549H35.9515H35.9482H35.9449H35.9416H35.9382H35.9349H35.9316H35.9283H35.9249H35.9216H35.9183H35.915H35.9116H35.9083H35.905H35.9016H35.8983H35.895H35.8916H35.8883H35.885H35.8817H35.8783H35.875H35.8717H35.8683H35.865H35.8617H35.8583H35.855H35.8516H35.8483H35.845H35.8416H35.8383H35.835H35.8316H35.8283H35.8249H35.8216H35.8183H35.8149H35.8116H35.8082H35.8049H35.8016H35.7982H35.7949H35.7915H35.7882H35.7848H35.7815H35.7781H35.7748H35.7714H35.7681H35.7647H35.7614H35.758H35.7547H35.7513H35.748H35.7446H35.7413H35.7379H35.7346H35.7312H35.7278H35.7245H35.7211H35.7178H35.7144H35.711H35.7077H35.7043H35.701H35.6976H35.6942H35.6909H35.6875H35.6841H35.6808H35.6774H35.674H35.6707H35.6673H35.6639H35.6605H35.6572H35.6538H35.6504H35.647H35.6437H35.6403H35.6369H35.6335H35.6302H35.6268H35.6234H35.62H35.6166H35.6132H35.6098H35.6065H35.6031H35.5997H35.5963H35.5929H35.5895H35.5861H35.5827H35.5793H35.5759H35.5725H35.5691H35.5657H35.5623H35.5589H35.5555H35.5521H35.5487H35.5453H35.5419H35.5385H35.5351H35.5317H35.5283H35.5249H35.5215H35.518H35.5146H35.5112H35.5078H35.5044H35.501H35.4975H35.4941H35.4907H35.4873H35.4838H35.4804H35.477H35.4736H35.4701H35.4667H35.4633H35.4598H35.4589V65.7352V65.7111V65.687V65.6629V65.6389V65.6148V65.5907V65.5666V65.5425V65.5184V65.4943V65.4702V65.4461V65.422V65.3979V65.3738V65.3497V65.3256V65.3015V65.2774V65.2532V65.2291V65.205V65.1809V65.1568V65.1327V65.1085V65.0844V65.0603V65.0362V65.012V64.9879V64.9638V64.9396V64.9155V64.8914V64.8672V64.8431V64.819V64.7948V64.7707V64.7465V64.7224V64.6982V64.6741V64.6499V64.6258V64.6016V64.5775V64.5533V64.5292V64.505V64.4808V64.4567V64.4325V64.4084V64.3842V64.36V64.3358V64.3117V64.2875V64.2633V64.2392V64.215V64.1908V64.1666V64.1424V64.1183V64.0941V64.0699V64.0457V64.0215V63.9973V63.9731V63.9489V63.9247V63.9005V63.8763V63.8522V63.828V63.8038V63.7795V63.7553V63.7311V63.7069V63.6827V63.6585V63.6343V63.6101V63.5859V63.5617V63.5374V63.5132V63.489V63.4648V63.4406V63.4163V63.3921V63.3679V63.3437V63.3194V63.2952V63.271V63.2468V63.2225V63.1983V63.174V63.1498V63.1256V63.1013V63.0771V63.0529V63.0286V63.0044V62.9801V62.9559V62.9316V62.9074V62.8831V62.8589V62.8346V62.8104V62.7861V62.7618V62.7376V62.7133V62.6891V62.6648V62.6405V62.6163V62.592V62.5677V62.5435V62.5192V62.4949V62.4707V62.4464V62.4221V62.3978V62.3736V62.3493V62.325V62.3007V62.2764V62.2522V62.2279V62.2036V62.1793V62.155V62.1307V62.1064V62.0821V62.0579V62.0336V62.0093V61.985V61.9607V61.9364V61.9121V61.8878V61.8635V61.8392V61.8149V61.7906V61.7663V61.742V61.7177V61.6933V61.669V61.6447V61.6204V61.5961V61.5718V61.5475V61.5231V61.4988V61.4745V61.4502V61.4259V61.4016V61.3772V61.3529V61.3286V61.3043V61.2799V61.2556V61.2313V61.2069V61.1826V61.1583V61.1339V61.1096V61.0853V61.0609V61.0366V61.0123V60.9879V60.9636V60.9392V60.9149V60.8906V60.8662V60.8419V60.8175V60.7932V60.7688V60.7445V60.7201V60.6958V60.6714V60.6471V60.6227V60.5984V60.574V60.5497V60.5253V60.5009V60.4766V60.4522V60.4279V60.4035V60.3791V60.3548V60.3304V60.306V60.2817V60.2573V60.2329V60.2086V60.1842V60.1598V60.1354V60.1111V60.0867V60.0623V60.0379V60.0136V59.9892V59.9648V59.9404V59.9161V59.8917V59.8673V59.8429V59.8185V59.7941V59.7698V59.7454V59.721V59.6966V59.6722V59.6478V59.6234V59.599V59.5746V59.5503V59.5259V59.5015V59.4771V59.4527V59.4283V59.4039V59.3795V59.3551V59.3307V59.3063V59.2819V59.2575V59.2331V59.2087V59.1843V59.1599V59.1355V59.1111V59.0866V59.0622V59.0378V59.0134V58.989V58.9646V58.9402V58.9158V58.8914V58.8669V58.8425V58.8181V58.7937V58.7693V58.7449V58.7204V58.696V58.6716V58.6472V58.6228V58.5983V58.5739V58.5495V58.5251V58.5007V58.4762V58.4518V58.4274V58.4029V58.3785V58.3541V58.3297V58.3052V58.2808V58.2564V58.2319V58.2075V58.1831V58.1586V58.1342V58.1098V58.0853V58.0609V58.0365V58.012V57.9876V57.9632V57.9387V57.9143V57.8898V57.8654V57.841V57.8165V57.7921V57.7676V57.7432V57.7187V57.6943V57.6699V57.6454V57.621V57.5965V57.5721V57.5476V57.5232V57.4987V57.4743V57.4498V57.4254V57.4009V57.3765V57.352V57.3276V57.3031V57.2787V57.2542V57.2297V57.2053V57.1808V57.1564V57.1319V57.1075V57.083V57.0586V57.0341V57.0096V56.9852V56.9607V56.9363V56.9118V56.8873V56.8629V56.8384V56.8139V56.7895V56.765V56.7406V56.7161V56.6916V56.6672V56.6427V56.6182V56.5938V56.5693V56.5448V56.5204V56.4959V56.4714V56.447V56.4225V56.398V56.3735V56.3491V56.3246V56.3001V56.2757V56.2512V56.2267V56.2023V56.1778V56.1533V56.1288V56.1044V56.0799V56.0554V56.0309V56.0065V55.982V55.9575V55.933V55.9086V55.8841V55.8596V55.8351V55.8106V55.7862V55.7617V55.7372V55.7127V55.6882V55.6638V55.6393V55.6148V55.5903V55.5658V55.5414V55.5169V55.4924V55.4679V55.4434V55.419V55.3945V55.37V55.3455V55.321V55.2965V55.2721V55.2476V55.2231V55.1986V55.1741V55.1496V55.1252V55.1007V55.0762V55.0517V55.0272V55.0027V54.9782V54.9537V54.9293V54.9048V54.8803V54.8558V54.8313V54.8068V54.7823V54.7579V54.7334V54.7089V54.6844V54.6599V54.6354V54.6109V54.5864V54.5619V54.5375V54.513V54.4885V54.464V54.4395V54.415V54.3905V54.366V54.3415V54.317V54.2926V54.2681V54.2436V54.2191V54.1946V54.1701V54.1456V54.1211V54.0966V54.0721V54.0476V54.0231V53.9987V53.9742V53.9497V53.9252V53.9007V53.8762V53.8517V53.8272V53.8027V53.7782V53.7537V53.7292V53.7048V53.6803V53.6558V53.6313V53.6068V53.5823V53.5578V53.5333C35.4589 53.4569 35.4591 53.4008 35.4637 53.3531C35.4676 53.3119 35.4737 53.2921 35.477 53.2841C35.487 53.2798 35.518 53.27 35.5867 53.27Z" fill="#FCDC02" stroke="#D7D8D9" stroke-width="0.5"/>
<path d="M30.6383 0.393705L30.6754 0.387951L30.7091 0.371581C30.757 0.348344 30.8071 0.335335 30.8856 0.316283L30.8926 0.314588C30.9509 0.300455 31.0262 0.282206 31.1059 0.25H31.1062H31.1097H31.1133H31.1168H31.1203H31.1238H31.1273H31.1308H31.1343H31.1378H31.1413H31.1448H31.1483H31.1518H31.1553H31.1588H31.1623H31.1658H31.1693H31.1727H31.1762H31.1797H31.1832H31.1867H31.1902H31.1936H31.1971H31.2006H31.2041H31.2075H31.211H31.2145H31.218H31.2214H31.2249H31.2284H31.2318H31.2353H31.2387H31.2422H31.2457H31.2491H31.2526H31.256H31.2595H31.2629H31.2664H31.2698H31.2733H31.2767H31.2802H31.2836H31.287H31.2905H31.2939H31.2974H31.3008H31.3042H31.3077H31.3111H31.3145H31.318H31.3214H31.3248H31.3282H31.3317H31.3351H31.3385H31.3419H31.3454H31.3488H31.3522H31.3556H31.359H31.3624H31.3659H31.3693H31.3727H31.3761H31.3795H31.3829H31.3863H31.3897H31.3931H31.3965H31.3999H31.4033H31.4067H31.4101H31.4135H31.4169H31.4203H31.4237H31.4271H31.4305H31.4339H31.4373H31.4407H31.4441H31.4475H31.4509H31.4542H31.4576H31.461H31.4644H31.4678H31.4712H31.4745H31.4779H31.4813H31.4847H31.4881H31.4914H31.4948H31.4982H31.5016H31.5049H31.5083H31.5117H31.5151H31.5184H31.5218H31.5252H31.5285H31.5319H31.5353H31.5386H31.542H31.5454H31.5487H31.5521H31.5554H31.5588H31.5622H31.5655H31.5689H31.5722H31.5756H31.579H31.5823H31.5857H31.589H31.5924H31.5957H31.5991H31.6024H31.6058H31.6091H31.6125H31.6158H31.6192H31.6225H31.6259H31.6292H31.6326H31.6359H31.6393H31.6426H31.6459H31.6493H31.6526H31.656H31.6593H31.6627H31.666H31.6693H31.6727H31.676H31.6794H31.6827H31.686H31.6894H31.6927H31.696H31.6994H31.7027H31.706H31.7094H31.7127H31.7161H31.7194H31.7227H31.726H31.7294H31.7327H31.736H31.7394H31.7427H31.746H31.7494H31.7527H31.756H31.7594H31.7627H31.766H31.7693H31.7727H31.776H31.7793H31.7826H31.786H31.7893H31.7926H31.7959H31.7993H31.8026H31.8059H31.8092H31.8126H31.8159H31.8192H31.8225H31.8259H31.8292H31.8325H31.8358H31.8392H31.8425H31.8458H31.8491H31.8524H31.8558H31.8591H31.8624H31.8657H31.869H31.8724H31.8757H31.879H31.8823H31.8857H31.889H31.8923H31.8956H31.8989H31.9023H31.9056H31.9089H31.9122H31.9155H31.9189H31.9222H31.9255H31.9288H31.9321H31.9355H31.9388H31.9421H31.9454H31.9487H31.9521H31.9554H31.9587H31.962H31.9653H31.9687H31.972H31.9753H31.9786H31.982H31.9853H31.9886H31.9919H31.9952H31.9986H32.0019H32.0052H32.0085H32.0118H32.0152H32.0185H32.0218H32.0251H32.0285H32.0318H32.0351H32.0384H32.0418H32.0451H32.0484H32.0517H32.0551H32.0584H32.0617H32.065H32.0684H32.0717H32.075H32.0784H32.0817H32.085H32.0883H32.0917H32.095H32.0983H32.1017H32.105H32.1083H32.1116H32.115H32.1183H32.1216H32.125H32.1283H32.1316H32.135H32.1383H32.1416H32.145H32.1483H32.1517H32.155H32.1583H32.1617H32.165H32.1683H32.1717H32.175H32.1784H32.1817H32.185H32.1884H32.1917H32.1951H32.1984H32.2018H32.2051H32.2084H32.2118H32.2151H32.2185H32.2218H32.2252H32.2285H32.2319H32.2352H32.2386H32.2419H32.2453H32.2486H32.252H32.2553H32.2587H32.262H32.2654H32.2688H32.2721H32.2755H32.2788H32.2822H32.2856H32.2889H32.2923H32.2956H32.299H32.3024H32.3057H32.3091H32.3125H32.3158H32.3192H32.3226H32.3259H32.3293H32.3327H32.336H32.3394H32.3428H32.3462H32.3495H32.3529H32.3563H32.3597H32.3631H32.3664H32.3698H32.3732H32.3766H32.38H32.3833H32.3867H32.3901H32.3935H32.3969H32.4003H32.4037H32.4071H32.4104H32.4138H32.4172H32.4206H32.424H32.4274H32.4308H32.4342H32.4376H32.441H32.4444H32.4478H32.4512H32.4546H32.458H32.4614H32.4649H32.4683H32.4717H32.4751H32.4785H32.4819H32.4853H32.4887H32.4922H32.4956H32.499H32.5024H32.5058H32.5093H32.5127H32.5161H32.5195H32.523H32.5264H32.5298H32.5333H32.5367H32.5401H32.5411V0.253516V0.278867V0.304219V0.32957V0.354922V0.380273V0.405625V0.430977V0.456328V0.48168V0.507031V0.532383V0.557734V0.583086V0.608437V0.633789V0.659141V0.684492V0.709844V0.735195V0.760547V0.785898V0.81125V0.836602V0.861953V0.887305V0.912656V0.938008V0.963359V0.988711V1.01406V1.03941V1.06477V1.09012V1.11547V1.14082V1.16617V1.19152V1.21687V1.24223V1.26758V1.29293V1.31828V1.34363V1.36898V1.39434V1.41969V1.44504V1.47039V1.49574V1.52109V1.54645V1.5718V1.59715V1.6225V1.64785V1.6732V1.69855V1.72391V1.74926V1.77461V1.79996V1.82531V1.85066V1.87602V1.90137V1.92672V1.95207V1.97742V2.00277V2.02813V2.05348V2.07883V2.10418V2.12953V2.15488V2.18023V2.20559V2.23094V2.25629V2.28164V2.30699V2.33234V2.3577V2.38305V2.4084V2.43375V2.4591V2.48445V2.5098V2.53516V2.56051V2.58586V2.61121V2.63656V2.66191V2.68727V2.71262V2.73797V2.76332V2.78867V2.81402V2.83938V2.86473V2.89008V2.91543V2.94078V2.96613V2.99148V3.01684V3.04219V3.06754V3.09289V3.11824V3.14359V3.16895V3.1943V3.21965V3.245V3.27035V3.2957V3.32105V3.34641V3.37176V3.39711V3.42246V3.44781V3.47316V3.49852V3.52387V3.54922V3.57457V3.59992V3.62527V3.65062V3.67598V3.70133V3.72668V3.75203V3.77738V3.80273V3.82809V3.85344V3.87879V3.90414V3.92949V3.95484V3.9802V4.00555V4.0309V4.05625V4.0816V4.10695V4.1323V4.15766V4.18301V4.20836V4.23371V4.25906V4.28441V4.30977V4.33512V4.36047V4.38582V4.41117V4.43652V4.46187V4.48723V4.51258V4.53793V4.56328V4.58863V4.61398V4.63934V4.66469V4.69004V4.71539V4.74074V4.76609V4.79145V4.8168V4.84215V4.8675V4.89285V4.9182V4.94355V4.96891V4.99426V5.01961V5.04496V5.07031V5.09566V5.12102V5.14637V5.17172V5.19707V5.22242V5.24777V5.27312V5.29848V5.32383V5.34918V5.37453V5.39988V5.42523V5.45059V5.47594V5.50129V5.52664V5.55199V5.57734V5.60269V5.62805V5.6534V5.67875V5.7041V5.72945V5.7548V5.78016V5.80551V5.83086V5.85621V5.88156V5.90691V5.93227V5.95762V5.98297V6.00832V6.03367V6.05902V6.08437V6.10973V6.13508V6.16043V6.18578V6.21113V6.23648V6.26184V6.28719V6.31254V6.33789V6.36324V6.38859V6.41395V6.4393V6.46465V6.49V6.51535V6.5407V6.56605V6.59141V6.61676V6.64211V6.66746V6.69281V6.71816V6.74352V6.76887V6.79422V6.81957V6.84492V6.87027V6.89563V6.92098V6.94633V6.97168V6.99703V7.02238V7.04773V7.07309V7.09844V7.12379V7.14914V7.17449V7.19984V7.2252V7.25055V7.2759V7.30125V7.3266V7.35195V7.3773V7.40266V7.42801V7.45336V7.47871V7.50406V7.52941V7.55477V7.58012V7.60547V7.63082V7.65617V7.68152V7.70687V7.73223V7.75758V7.78293V7.80828V7.83363V7.85898V7.88434V7.90969V7.93504V7.96039V7.98574V8.01109V8.03645V8.0618V8.08715V8.1125V8.13785V8.1632V8.18855V8.21391V8.23926V8.26461V8.28996V8.31531V8.34066V8.36602V8.39137V8.41672V8.44207V8.46742V8.49277V8.51812V8.54348V8.56883V8.59418V8.61953V8.64488V8.67023V8.69559V8.72094V8.74629V8.77164V8.79699V8.82234V8.8477V8.87305V8.8984V8.92375V8.9491V8.97445V8.9998V9.02516V9.05051V9.07586V9.10121V9.12656V9.15191V9.17727V9.20262V9.22797V9.25332V9.27867V9.30402V9.32938V9.35473V9.38008V9.40543V9.43078V9.45613V9.48148V9.50684V9.53219V9.55754V9.58289V9.60824V9.63359V9.65895V9.6843V9.70965V9.735V9.76035V9.7857V9.81105V9.83641V9.86176V9.88711V9.91246V9.93781V9.96316V9.98852V10.0139V10.0392V10.0646V10.0899V10.1153V10.1406V10.166V10.1913V10.2167V10.242V10.2674V10.2927V10.3181V10.3434V10.3688V10.3941V10.4195V10.4448V10.4702V10.4955V10.5209V10.5462V10.5716V10.597V10.6223V10.6477V10.673V10.6984V10.7237V10.7491V10.7744V10.7998V10.8251V10.8505V10.8758V10.9012V10.9265V10.9519V10.9772V11.0026V11.0279V11.0533V11.0786V11.104V11.1293V11.1547V11.18V11.2054V11.2307V11.2561V11.2814V11.3068V11.3321V11.3575V11.3829V11.4082V11.4336V11.4589V11.4843V11.5096V11.535V11.5603V11.5857V11.611V11.6364V11.6617V11.6871V11.7124V11.7378V11.7631V11.7885V11.8138V11.8392V11.8645V11.8899V11.9152V11.9406V11.9659V11.9913V12.0166V12.042V12.0673V12.0927V12.118V12.1434V12.1687V12.1941V12.2195V12.2448V12.2702V12.2955V12.3209V12.3462V12.3716V12.3969V12.4223V12.4476V12.473V12.4983V12.5237V12.549V12.5744V12.5997V12.6251V12.6504V12.6758V12.7011V12.7265V12.7438C29.799 12.9151 27.2605 13.6157 24.7343 14.7149C22.625 11.1146 20.5135 7.51254 18.3331 3.91024C20.4333 2.80841 22.6021 1.97737 24.8399 1.4166C26.6497 1.01139 28.46 0.731067 30.2198 0.458577C30.3596 0.436923 30.4991 0.415319 30.6383 0.393705Z" fill="#FCDC02" stroke="#D7D8D9" stroke-width="0.5"/>
<path d="M0.77301 26.8939L0.773034 26.8939L0.773744 26.8905C1.43327 23.6898 2.44876 20.7051 4.09693 17.8633C7.81035 19.9127 11.5221 21.9625 15.2336 24.079C14.035 26.4652 13.3138 28.9275 13.1376 31.65H13.1344H13.1079H13.0814H13.0548H13.0283H13.0018H12.9753H12.9488H12.9223H12.8958H12.8693H12.8428H12.8163H12.7898H12.7633H12.7368H12.7103H12.6838H12.6574H12.6309H12.6044H12.578H12.5515H12.525H12.4986H12.4721H12.4457H12.4192H12.3928H12.3664H12.3399H12.3135H12.2871H12.2606H12.2342H12.2078H12.1814H12.155H12.1285H12.1021H12.0757H12.0493H12.0229H11.9965H11.9701H11.9437H11.9173H11.891H11.8646H11.8382H11.8118H11.7854H11.7591H11.7327H11.7063H11.68H11.6536H11.6273H11.6009H11.5745H11.5482H11.5219H11.4955H11.4692H11.4428H11.4165H11.3902H11.3638H11.3375H11.3112H11.2849H11.2585H11.2322H11.2059H11.1796H11.1533H11.127H11.1007H11.0744H11.0481H11.0218H10.9955H10.9692H10.9429H10.9166H10.8903H10.8641H10.8378H10.8115H10.7852H10.759H10.7327H10.7064H10.6802H10.6539H10.6276H10.6014H10.5751H10.5489H10.5226H10.4964H10.4701H10.4439H10.4177H10.3914H10.3652H10.3389H10.3127H10.2865H10.2603H10.234H10.2078H10.1816H10.1554H10.1292H10.103H10.0767H10.0505H10.0243H9.99813H9.97192H9.94572H9.91953H9.89333H9.86714H9.84095H9.81476H9.78857H9.76239H9.7362H9.71002H9.68384H9.65767H9.63149H9.60532H9.57915H9.55298H9.52682H9.50065H9.47449H9.44833H9.42217H9.39601H9.36986H9.34371H9.31755H9.2914H9.26526H9.23911H9.21297H9.18683H9.16069H9.13455H9.10841H9.08228H9.05615H9.03002H9.00389H8.97776H8.95164H8.92551H8.89939H8.87327H8.84715H8.82103H8.79492H8.76881H8.74269H8.71659H8.69048H8.66437H8.63826H8.61216H8.58606H8.55996H8.53386H8.50776H8.48167H8.45558H8.42948H8.40339H8.3773H8.35122H8.32513H8.29905H8.27296H8.24688H8.2208H8.19472H8.16865H8.14257H8.1165H8.09042H8.06435H8.03828H8.01221H7.98615H7.96008H7.93402H7.90795H7.88189H7.85583H7.82977H7.80372H7.77766H7.7516H7.72555H7.6995H7.67345H7.6474H7.62135H7.5953H7.56925H7.54321H7.51717H7.49112H7.46508H7.43904H7.413H7.38697H7.36093H7.33489H7.30886H7.28282H7.25679H7.23076H7.20473H7.1787H7.15267H7.12665H7.10062H7.0746H7.04857H7.02255H6.99653H6.97051H6.94449H6.91847H6.89245H6.86644H6.84042H6.8144H6.78839H6.76238H6.73636H6.71035H6.68434H6.65833H6.63233H6.60632H6.58031H6.5543H6.5283H6.50229H6.47629H6.45029H6.42429H6.39828H6.37228H6.34628H6.32028H6.29429H6.26829H6.24229H6.2163H6.1903H6.16431H6.13831H6.11232H6.08632H6.06033H6.03434H6.00835H5.98236H5.95637H5.93038H5.90439H5.8784H5.85242H5.82643H5.80044H5.77446H5.74847H5.72249H5.6965H5.67052H5.64454H5.61855H5.59257H5.56659H5.54061H5.51463H5.48865H5.46267H5.43669H5.41071H5.38473H5.35875H5.33277H5.30679H5.28081H5.25484H5.22886H5.20288H5.17691H5.15093H5.12495H5.09898H5.073H5.04703H5.02105H4.99508H4.9691H4.94313H4.91716H4.89118H4.86521H4.83923H4.81326H4.78729H4.76132H4.73534H4.70937H4.6834H4.65742H4.63145H4.60548H4.57951H4.55353H4.52756H4.50159H4.47562H4.44965H4.42367H4.3977H4.37173H4.34576H4.31978H4.29381H4.26784H4.24187H4.21589H4.18992H4.16395H4.13798H4.112H4.08603H4.06006H4.03408H4.00811H3.98214H3.95616H3.93019H3.90421H3.87824H3.85226H3.82629H3.80031H3.77434H3.74836H3.72239H3.69641H3.67043H3.64446H3.61848H3.5925H3.56653H3.54055H3.51457H3.48859H3.46261H3.43663H3.41065H3.38467H3.35869H3.33271H3.30673H3.28074H3.25476H3.22878H3.2028H3.17681H3.15083H3.12484H3.09886H3.07287H3.04688H3.0209H2.99491H2.96892H2.94293H2.91694H2.89095H2.86496H2.83897H2.81298H2.78699H2.76099H2.735H2.70901H2.68301H2.65702H2.63102H2.60502H2.57902H2.55303H2.52703H2.50103H2.47502H2.44902H2.42302H2.39702H2.37101H2.34501H2.319H2.293H2.26699H2.24098H2.21497H2.18896H2.16295H2.13694H2.11093H2.08491H2.0589H2.03288H2.00687H1.98085H1.95483H1.92881H1.90279H1.87677H1.85075H1.82473H1.7987H1.77268H1.74665H1.72063H1.6946H1.66857H1.64254H1.61651H1.59047H1.56444H1.5384H1.51237H1.48633H1.46029H1.43425H1.40821H1.38217H1.35613H1.33008H1.30404H1.27799H1.25194H1.2259H1.19985H1.17379H1.14774H1.12169H1.09563H1.06957H1.04352H1.01746H0.991396H0.965334H0.939271H0.913206H0.88714H0.861072H0.835003H0.808933H0.782861H0.756788H0.730713H0.704637H0.67856H0.652481H0.6264H0.600318H0.574235H0.54815H0.522063H0.495975H0.469886H0.443795H0.417702H0.391608H0.365512H0.339415H0.313316H0.287215H0.261113H0.25V31.6483V31.6445V31.6407V31.637V31.6332V31.6295V31.6257V31.622V31.6182V31.6145V31.6107V31.607V31.6032V31.5995V31.5957V31.592V31.5882V31.5845V31.5808V31.577V31.5733V31.5696V31.5658V31.5621V31.5584V31.5546V31.5509V31.5472V31.5435V31.5397V31.536V31.5323V31.5286V31.5248V31.5211V31.5174V31.5137V31.51V31.5063V31.5026V31.4989V31.4952V31.4914V31.4877V31.484V31.4803V31.4766V31.4729V31.4692V31.4655V31.4619V31.4582V31.4545V31.4508V31.4471V31.4434V31.4397V31.436V31.4323V31.4287V31.425V31.4213V31.4176V31.4139V31.4103V31.4066V31.4029V31.3992V31.3956V31.3919V31.3882V31.3845V31.3809V31.3772V31.3735V31.3699V31.3662V31.3626V31.3589V31.3552V31.3516V31.3479V31.3443V31.3406V31.337V31.3333V31.3297V31.326V31.3224V31.3187V31.3151V31.3114V31.3078V31.3041V31.3005V31.2969V31.2932V31.2896V31.2859V31.2823V31.2787V31.275V31.2714V31.2678V31.2642V31.2605V31.2569V31.2533V31.2496V31.246V31.2424V31.2388V31.2352V31.2315V31.2279V31.2243V31.2207V31.2171V31.2135V31.2098V31.2062V31.2026V31.199V31.1954V31.1918V31.1882V31.1846V31.181V31.1774V31.1738V31.1702V31.1666V31.163V31.1594V31.1558V31.1522V31.1486V31.145V31.1414V31.1378V31.1342V31.1306V31.127V31.1234V31.1198V31.1163V31.1127V31.1091V31.1055V31.1019V31.0983V31.0948V31.0912V31.0876V31.084V31.0804V31.0769V31.0733V31.0697V31.0662V31.0626V31.059V31.0554V31.0519V31.0483V31.0447V31.0412V31.0376V31.034V31.0305V31.0269V31.0233V31.0198V31.0162V31.0127V31.0091V31.0056V31.002V30.9984V30.9949V30.9913V30.9878V30.9842V30.9807V30.9771V30.9736V30.97V30.9665V30.9629V30.9594V30.9558V30.9523V30.9488V30.9452V30.9417V30.9381V30.9346V30.931V30.9275V30.924V30.9204V30.9169V30.9134V30.9098V30.9063V30.9028V30.8992V30.8957V30.8922V30.8886V30.8851V30.8816V30.878V30.8745V30.871V30.8675V30.8639V30.8604V30.8569V30.8534V30.8499V30.8463V30.8428V30.8393V30.8358V30.8323V30.8287V30.8252V30.8217V30.8182V30.8147V30.8112V30.8077V30.8041V30.8006V30.7971V30.7936V30.7901V30.7866V30.7831V30.7796V30.7761V30.7726V30.7691V30.7656V30.762V30.7585V30.755V30.7515V30.748V30.7445V30.741V30.7375V30.734V30.7305V30.727V30.7235V30.72V30.7166V30.7131V30.7096V30.7061V30.7026V30.6991V30.6956V30.6921V30.6886V30.6851V30.6816V30.6781V30.6747V30.6712V30.6677V30.6642V30.6607V30.6572V30.6537V30.6502V30.6468V30.6433V30.6398V30.6363V30.6328V30.6294V30.6259V30.6224V30.6189V30.6154V30.612V30.6085V30.605V30.6015V30.598V30.5946V30.5911V30.5876V30.5841V30.5807V30.5772V30.5737V30.5702V30.5668V30.5633V30.5598V30.5564V30.5529V30.5494V30.546V30.5425V30.539V30.5355V30.5321V30.5286V30.5251V30.5217V30.5182V30.5147V30.5113V30.5078V30.5044V30.5009V30.4974V30.494V30.4905V30.487V30.4836V30.4801V30.4767V30.4732V30.4697V30.4663V30.4628V30.4594V30.4559V30.4524V30.449V30.4455V30.4421V30.4386V30.4352V30.4317V30.4282V30.4248V30.4213V30.4179V30.4144V30.411V30.4075V30.4041V30.4006V30.3972V30.3937V30.3903V30.3868V30.3833V30.3799V30.3764V30.373V30.3695V30.3661V30.3626V30.3592V30.3557V30.3523V30.3488V30.3454V30.342V30.3385V30.3351V30.3316V30.3282V30.3247V30.3213V30.3178V30.3144V30.3109V30.3075V30.304V30.3006V30.2971V30.2937V30.2903V30.2868V30.2834V30.2799V30.2765V30.273V30.2696V30.2662V30.2627V30.2593V30.2558V30.2524V30.2489V30.2455V30.2421V30.2386V30.2352V30.2317V30.2283V30.2248V30.2214V30.218V30.2145V30.2111V30.2076V30.2042V30.2008V30.1973V30.1939V30.1904V30.187V30.1836V30.1801V30.1767V30.1733V30.1698V30.1664V30.1629V30.1595V30.1561V30.1526V30.1492V30.1457V30.1423V30.1389V30.1354V30.132V30.1286V30.1251V30.1217V30.1182V30.1148V30.1114V30.1079V30.1045V30.101V30.0976V30.0942V30.0907V30.0873V30.0839V30.0838C0.400608 28.9875 0.550061 27.9037 0.77301 26.8939Z" fill="#FCDC02" stroke="#D7D8D9" stroke-width="0.5"/>
<path d="M40.3746 0.758752L40.3746 0.758773L40.3778 0.759354C43.5913 1.33963 46.5816 2.35353 49.4986 3.80225C49.5505 3.8458 49.6101 3.88294 49.6647 3.91377C48.1224 6.46189 46.6135 9.01125 45.0912 11.5833C44.4626 12.6453 43.8317 13.7112 43.1952 14.7824C40.7299 13.6159 38.1255 12.9148 35.3833 12.7438V12.7224V12.6966V12.6709V12.6451V12.6194V12.5937V12.5679V12.5422V12.5165V12.4908V12.465V12.4393V12.4136V12.3879V12.3622V12.3365V12.3108V12.2851V12.2594V12.2337V12.208V12.1823V12.1567V12.131V12.1053V12.0796V12.054V12.0283V12.0026V11.977V11.9513V11.9257V11.9V11.8744V11.8487V11.8231V11.7975V11.7718V11.7462V11.7206V11.6949V11.6693V11.6437V11.6181V11.5924V11.5668V11.5412V11.5156V11.49V11.4644V11.4388V11.4132V11.3876V11.362V11.3364V11.3109V11.2853V11.2597V11.2341V11.2085V11.183V11.1574V11.1318V11.1063V11.0807V11.0552V11.0296V11.004V10.9785V10.9529V10.9274V10.9019V10.8763V10.8508V10.8252V10.7997V10.7742V10.7487V10.7231V10.6976V10.6721V10.6466V10.6211V10.5955V10.57V10.5445V10.519V10.4935V10.468V10.4425V10.417V10.3915V10.366V10.3405V10.3151V10.2896V10.2641V10.2386V10.2131V10.1877V10.1622V10.1367V10.1113V10.0858V10.0603V10.0349V10.0094V9.98394V9.95849V9.93304V9.90759V9.88214V9.85669V9.83125V9.80581V9.78037V9.75493V9.7295V9.70406V9.67863V9.6532V9.62778V9.60235V9.57693V9.55151V9.52609V9.50067V9.47526V9.44984V9.42443V9.39902V9.37362V9.34821V9.32281V9.29741V9.27201V9.24661V9.22122V9.19583V9.17043V9.14505V9.11966V9.09427V9.06889V9.04351V9.01813V8.99275V8.96737V8.942V8.91663V8.89125V8.86589V8.84052V8.81515V8.78979V8.76443V8.73907V8.71371V8.68835V8.663V8.63764V8.61229V8.58694V8.56159V8.53624V8.5109V8.48556V8.46021V8.43487V8.40954V8.3842V8.35886V8.33353V8.3082V8.28287V8.25754V8.23221V8.20688V8.18156V8.15623V8.13091V8.10559V8.08027V8.05496V8.02964V8.00433V7.97901V7.9537V7.92839V7.90308V7.87778V7.85247V7.82717V7.80186V7.77656V7.75126V7.72596V7.70066V7.67537V7.65007V7.62478V7.59949V7.57419V7.5489V7.52362V7.49833V7.47304V7.44776V7.42247V7.39719V7.37191V7.34663V7.32135V7.29607V7.2708V7.24552V7.22025V7.19497V7.1697V7.14443V7.11916V7.09389V7.06862V7.04336V7.01809V6.99283V6.96756V6.9423V6.91704V6.89178V6.86652V6.84126V6.816V6.79075V6.76549V6.74024V6.71498V6.68973V6.66448V6.63923V6.61398V6.58873V6.56348V6.53824V6.51299V6.48774V6.4625V6.43726V6.41201V6.38677V6.36153V6.33629V6.31105V6.28581V6.26057V6.23534V6.2101V6.18486V6.15963V6.13439V6.10916V6.08393V6.05869V6.03346V6.00823V5.983V5.95777V5.93254V5.90731V5.88209V5.85686V5.83163V5.80641V5.78118V5.75596V5.73073V5.70551V5.68029V5.65506V5.62984V5.60462V5.5794V5.55418V5.52896V5.50374V5.47852V5.4533V5.42808V5.40286V5.37765V5.35243V5.32721V5.302V5.27678V5.25157V5.22635V5.20114V5.17592V5.15071V5.12549V5.10028V5.07507V5.04986V5.02464V4.99943V4.97422V4.94901V4.9238V4.89859V4.87337V4.84816V4.82295V4.79774V4.77253V4.74732V4.72211V4.6969V4.67169V4.64649V4.62128V4.59607V4.57086V4.54565V4.52044V4.49523V4.47002V4.44482V4.41961V4.3944V4.36919V4.34398V4.31877V4.29356V4.26836V4.24315V4.21794V4.19273V4.16752V4.14231V4.11711V4.0919V4.06669V4.04148V4.01627V3.99106V3.96585V3.94064V3.91543V3.89022V3.86501V3.8398V3.81459V3.78938V3.76417V3.73896V3.71375V3.68854V3.66333V3.63812V3.61291V3.58769V3.56248V3.53727V3.51205V3.48684V3.46163V3.43641V3.4112V3.38598V3.36077V3.33555V3.31034V3.28512V3.2599V3.23469V3.20947V3.18425V3.15903V3.13381V3.1086V3.08338V3.05816V3.03293V3.00771V2.98249V2.95727V2.93205V2.90682V2.8816V2.85638V2.83115V2.80592V2.7807V2.75547V2.73024V2.70502V2.67979V2.65456V2.62933V2.6041V2.57887V2.55364V2.5284V2.50317V2.47794V2.4527V2.42747V2.40223V2.37699V2.35176V2.32652V2.30128V2.27604V2.2508V2.22556V2.20031V2.17507V2.14983V2.12458V2.09934V2.07409V2.04884V2.02359V1.99834V1.97309V1.94784V1.92259V1.89734V1.87208V1.84683V1.82157V1.79632V1.77106V1.7458V1.72054V1.69528V1.67002V1.64476V1.61949V1.59423V1.56896V1.54369V1.51843V1.49316V1.46789V1.44262V1.41734V1.39207V1.3668V1.34152V1.31624V1.29096V1.26568V1.2404V1.21512V1.18984V1.16456V1.13927V1.11398V1.0887V1.06341V1.03812V1.01282V0.987532V0.962237V0.936942V0.911645V0.886347V0.861047V0.835747V0.810444V0.785141V0.759836V0.734529V0.709222V0.683913V0.658602V0.63329V0.607977V0.582662V0.557346V0.532028V0.506709V0.481388V0.456066V0.430742V0.405417V0.38009V0.354762V0.329432V0.304101V0.278768V0.253433V0.25H35.3849H35.3888H35.3927H35.3966H35.4004H35.4043H35.4082H35.4121H35.4159H35.4198H35.4237H35.4275H35.4314H35.4353H35.4391H35.443H35.4468H35.4507H35.4545H35.4584H35.4623H35.4661H35.47H35.4738H35.4776H35.4815H35.4853H35.4892H35.493H35.4969H35.5007H35.5045H35.5084H35.5122H35.516H35.5199H35.5237H35.5275H35.5313H35.5352H35.539H35.5428H35.5466H35.5504H35.5543H35.5581H35.5619H35.5657H35.5695H35.5733H35.5771H35.581H35.5848H35.5886H35.5924H35.5962H35.6H35.6038H35.6076H35.6114H35.6152H35.619H35.6228H35.6266H35.6303H35.6341H35.6379H35.6417H35.6455H35.6493H35.6531H35.6568H35.6606H35.6644H35.6682H35.672H35.6757H35.6795H35.6833H35.6871H35.6908H35.6946H35.6984H35.7021H35.7059H35.7097H35.7134H35.7172H35.721H35.7247H35.7285H35.7322H35.736H35.7397H35.7435H35.7473H35.751H35.7548H35.7585H35.7622H35.766H35.7697H35.7735H35.7772H35.781H35.7847H35.7885H35.7922H35.7959H35.7997H35.8034H35.8071H35.8109H35.8146H35.8183H35.8221H35.8258H35.8295H35.8332H35.837H35.8407H35.8444H35.8481H35.8519H35.8556H35.8593H35.863H35.8667H35.8704H35.8742H35.8779H35.8816H35.8853H35.889H35.8927H35.8964H35.9001H35.9038H35.9075H35.9112H35.9149H35.9186H35.9223H35.926H35.9297H35.9334H35.9371H35.9408H35.9445H35.9482H35.9519H35.9556H35.9593H35.963H35.9667H35.9704H35.974H35.9777H35.9814H35.9851H35.9888H35.9925H35.9961H35.9998H36.0035H36.0072H36.0108H36.0145H36.0182H36.0219H36.0255H36.0292H36.0329H36.0366H36.0402H36.0439H36.0476H36.0512H36.0549H36.0586H36.0622H36.0659H36.0695H36.0732H36.0769H36.0805H36.0842H36.0878H36.0915H36.0951H36.0988H36.1025H36.1061H36.1098H36.1134H36.1171H36.1207H36.1244H36.128H36.1317H36.1353H36.1389H36.1426H36.1462H36.1499H36.1535H36.1572H36.1608H36.1644H36.1681H36.1717H36.1754H36.179H36.1826H36.1863H36.1899H36.1935H36.1972H36.2008H36.2044H36.208H36.2117H36.2153H36.2189H36.2226H36.2262H36.2298H36.2334H36.2371H36.2407H36.2443H36.2479H36.2515H36.2552H36.2588H36.2624H36.266H36.2696H36.2733H36.2769H36.2805H36.2841H36.2877H36.2913H36.2949H36.2986H36.3022H36.3058H36.3094H36.313H36.3166H36.3202H36.3238H36.3274H36.331H36.3346H36.3382H36.3418H36.3454H36.349H36.3526H36.3562H36.3598H36.3634H36.367H36.3706H36.3742H36.3778H36.3814H36.385H36.3886H36.3922H36.3958H36.3994H36.403H36.4066H36.4102H36.4138H36.4174H36.421H36.4246H36.4281H36.4317H36.4353H36.4389H36.4425H36.4461H36.4497H36.4532H36.4568H36.4604H36.464H36.4676H36.4712H36.4747H36.4783H36.4819H36.4855H36.4891H36.4926H36.4962H36.4998H36.5034H36.507H36.5105H36.5141H36.5177H36.5213H36.5248H36.5284H36.532H36.5356H36.5391H36.5427H36.5463H36.5499H36.5534H36.557H36.5606H36.5641H36.5677H36.5713H36.5748H36.5784H36.582H36.5855H36.5891H36.5927H36.5962H36.5998H36.6034H36.6069H36.6105H36.6141H36.6176H36.6212H36.6248H36.6283H36.6319H36.6354H36.639H36.6426H36.6461H36.6497H36.6533H36.6568H36.6604H36.6639H36.6675H36.671H36.6746H36.6782H36.6817H36.6853H36.6888H36.6924H36.6959H36.6995H36.7031H36.7066H36.7102H36.7137H36.7173H36.7208H36.7244H36.7279H36.7315H36.735H36.7386H36.7422H36.7457H36.7493H36.7528H36.7564H36.7599H36.7635H36.767H36.7706H36.7741H36.7777H36.7812H36.7848H36.7883H36.7919H36.7954H36.799H36.8025H36.8061H36.8096H36.8131H36.8167H36.8202H36.8238H36.8273H36.8309H36.8344H36.838H36.8415H36.8451H36.8486H36.8522H36.8557H36.8592H36.8628H36.8663H36.8699H36.8734H36.877H36.8805H36.8841H36.8876H36.8911H36.8947H36.8982H36.9018H36.9053H36.9089H36.9124H36.916H36.9195H36.923H36.9266H36.9301H36.9337H36.9372H36.9408H36.9443H36.9478H36.9514H36.9549H36.9585H36.962H36.9656H36.9691H36.9726H36.9762H36.9797H36.9833H36.9868H36.9903H36.9939H36.9974H37.001H37.0045H37.0061C38.1353 0.39613 39.2555 0.541525 40.3746 0.758752Z" fill="#FCDC02" stroke="#D7D8D9" stroke-width="0.5"/>
<path d="M18.3984 62.0376L18.3447 62.0101H18.3371C20.5146 58.4151 22.6247 54.8806 24.7339 51.1465C27.1978 52.3118 29.8007 53.012 32.5411 53.1829V53.2044V53.2301V53.2559V53.2816V53.3073V53.3331V53.3588V53.3845V53.4103V53.436V53.4617V53.4874V53.5131V53.5388V53.5645V53.5902V53.6159V53.6416V53.6673V53.693V53.7187V53.7444V53.7701V53.7957V53.8214V53.8471V53.8728V53.8984V53.9241V53.9497V53.9754V54.0011V54.0267V54.0524V54.078V54.1036V54.1293V54.1549V54.1805V54.2062V54.2318V54.2574V54.283V54.3087V54.3343V54.3599V54.3855V54.4111V54.4367V54.4623V54.4879V54.5135V54.5391V54.5647V54.5903V54.6159V54.6415V54.667V54.6926V54.7182V54.7438V54.7693V54.7949V54.8205V54.846V54.8716V54.8971V54.9227V54.9482V54.9738V54.9993V55.0249V55.0504V55.0759V55.1015V55.127V55.1525V55.1781V55.2036V55.2291V55.2546V55.2802V55.3057V55.3312V55.3567V55.3822V55.4077V55.4332V55.4587V55.4842V55.5097V55.5352V55.5607V55.5862V55.6117V55.6372V55.6626V55.6881V55.7136V55.7391V55.7645V55.79V55.8155V55.8409V55.8664V55.8919V55.9173V55.9428V55.9682V55.9937V56.0191V56.0446V56.07V56.0955V56.1209V56.1464V56.1718V56.1972V56.2227V56.2481V56.2735V56.299V56.3244V56.3498V56.3752V56.4006V56.4261V56.4515V56.4769V56.5023V56.5277V56.5531V56.5785V56.6039V56.6293V56.6547V56.6801V56.7055V56.7309V56.7563V56.7817V56.8071V56.8325V56.8578V56.8832V56.9086V56.934V56.9594V56.9847V57.0101V57.0355V57.0608V57.0862V57.1116V57.1369V57.1623V57.1877V57.213V57.2384V57.2637V57.2891V57.3144V57.3398V57.3651V57.3905V57.4158V57.4412V57.4665V57.4919V57.5172V57.5425V57.5679V57.5932V57.6185V57.6439V57.6692V57.6945V57.7198V57.7452V57.7705V57.7958V57.8211V57.8465V57.8718V57.8971V57.9224V57.9477V57.973V57.9983V58.0236V58.049V58.0743V58.0996V58.1249V58.1502V58.1755V58.2008V58.2261V58.2514V58.2767V58.302V58.3272V58.3525V58.3778V58.4031V58.4284V58.4537V58.479V58.5043V58.5295V58.5548V58.5801V58.6054V58.6307V58.6559V58.6812V58.7065V58.7318V58.757V58.7823V58.8076V58.8328V58.8581V58.8834V58.9086V58.9339V58.9592V58.9844V59.0097V59.035V59.0602V59.0855V59.1107V59.136V59.1612V59.1865V59.2117V59.237V59.2623V59.2875V59.3128V59.338V59.3632V59.3885V59.4137V59.439V59.4642V59.4895V59.5147V59.54V59.5652V59.5904V59.6157V59.6409V59.6662V59.6914V59.7166V59.7419V59.7671V59.7923V59.8176V59.8428V59.868V59.8933V59.9185V59.9437V59.969V59.9942V60.0194V60.0446V60.0699V60.0951V60.1203V60.1455V60.1708V60.196V60.2212V60.2464V60.2717V60.2969V60.3221V60.3473V60.3726V60.3978V60.423V60.4482V60.4734V60.4986V60.5239V60.5491V60.5743V60.5995V60.6247V60.65V60.6752V60.7004V60.7256V60.7508V60.776V60.8012V60.8265V60.8517V60.8769V60.9021V60.9273V60.9525V60.9777V61.0029V61.0281V61.0534V61.0786V61.1038V61.129V61.1542V61.1794V61.2046V61.2298V61.255V61.2802V61.3055V61.3307V61.3559V61.3811V61.4063V61.4315V61.4567V61.4819V61.5071V61.5323V61.5575V61.5828V61.608V61.6332V61.6584V61.6836V61.7088V61.734V61.7592V61.7844V61.8096V61.8348V61.86V61.8853V61.9105V61.9357V61.9609V61.9861V62.0113V62.0365V62.0617V62.0869V62.1121V62.1373V62.1626V62.1878V62.213V62.2382V62.2634V62.2886V62.3138V62.339V62.3643V62.3895V62.4147V62.4399V62.4651V62.4903V62.5155V62.5407V62.566V62.5912V62.6164V62.6416V62.6668V62.692V62.7173V62.7425V62.7677V62.7929V62.8181V62.8434V62.8686V62.8938V62.919V62.9442V62.9695V62.9947V63.0199V63.0451V63.0704V63.0956V63.1208V63.146V63.1713V63.1965V63.2217V63.2469V63.2722V63.2974V63.3226V63.3479V63.3731V63.3983V63.4236V63.4488V63.474V63.4993V63.5245V63.5497V63.575V63.6002V63.6255V63.6507V63.6759V63.7012V63.7264V63.7517V63.7769V63.8022V63.8274V63.8526V63.8779V63.9031V63.9284V63.9536V63.9789V64.0041V64.0294V64.0546V64.0799V64.1052V64.1304V64.1557V64.1809V64.2062V64.2315V64.2567V64.282V64.3072V64.3325V64.3578V64.383V64.4083V64.4336V64.4588V64.4841V64.5094V64.5347V64.5599V64.5852V64.6105V64.6358V64.661V64.6863V64.7116V64.7369V64.7622V64.7875V64.8127V64.838V64.8633V64.8886V64.9139V64.9392V64.9645V64.9898V65.0151V65.0404V65.0657V65.091V65.1163V65.1416V65.1669V65.1922V65.2175V65.2428V65.2681V65.2934V65.3188V65.3441V65.3694V65.3947V65.42V65.4453V65.4707V65.496V65.5213V65.5466V65.572V65.5973V65.6226V65.648V65.6733V65.6767H32.5401H32.5367H32.5333H32.5298H32.5264H32.523H32.5195H32.5161H32.5127H32.5093H32.5058H32.5024H32.499H32.4956H32.4922H32.4887H32.4853H32.4819H32.4785H32.4751H32.4717H32.4683H32.4649H32.4614H32.458H32.4546H32.4512H32.4478H32.4444H32.441H32.4376H32.4342H32.4308H32.4274H32.424H32.4206H32.4172H32.4138H32.4104H32.4071H32.4037H32.4003H32.3969H32.3935H32.3901H32.3867H32.3833H32.38H32.3766H32.3732H32.3698H32.3664H32.3631H32.3597H32.3563H32.3529H32.3495H32.3462H32.3428H32.3394H32.336H32.3327H32.3293H32.3259H32.3226H32.3192H32.3158H32.3125H32.3091H32.3057H32.3024H32.299H32.2956H32.2923H32.2889H32.2856H32.2822H32.2788H32.2755H32.2721H32.2688H32.2654H32.262H32.2587H32.2553H32.252H32.2486H32.2453H32.2419H32.2386H32.2352H32.2319H32.2285H32.2252H32.2218H32.2185H32.2151H32.2118H32.2084H32.2051H32.2018H32.1984H32.1951H32.1917H32.1884H32.185H32.1817H32.1784H32.175H32.1717H32.1683H32.165H32.1617H32.1583H32.155H32.1517H32.1483H32.145H32.1416H32.1383H32.135H32.1316H32.1283H32.125H32.1216H32.1183H32.115H32.1116H32.1083H32.105H32.1017H32.0983H32.095H32.0917H32.0883H32.085H32.0817H32.0784H32.075H32.0717H32.0684H32.065H32.0617H32.0584H32.0551H32.0517H32.0484H32.0451H32.0418H32.0384H32.0351H32.0318H32.0285H32.0251H32.0218H32.0185H32.0152H32.0118H32.0085H32.0052H32.0019H31.9986H31.9952H31.9919H31.9886H31.9853H31.982H31.9786H31.9753H31.972H31.9687H31.9653H31.962H31.9587H31.9554H31.9521H31.9487H31.9454H31.9421H31.9388H31.9355H31.9321H31.9288H31.9255H31.9222H31.9189H31.9155H31.9122H31.9089H31.9056H31.9023H31.8989H31.8956H31.8923H31.889H31.8857H31.8823H31.879H31.8757H31.8724H31.869H31.8657H31.8624H31.8591H31.8558H31.8524H31.8491H31.8458H31.8425H31.8392H31.8358H31.8325H31.8292H31.8259H31.8225H31.8192H31.8159H31.8126H31.8092H31.8059H31.8026H31.7993H31.7959H31.7926H31.7893H31.786H31.7826H31.7793H31.776H31.7727H31.7693H31.766H31.7627H31.7594H31.756H31.7527H31.7494H31.746H31.7427H31.7394H31.736H31.7327H31.7294H31.726H31.7227H31.7194H31.7161H31.7127H31.7094H31.706H31.7027H31.6994H31.696H31.6927H31.6894H31.686H31.6827H31.6794H31.676H31.6727H31.6693H31.666H31.6627H31.6593H31.656H31.6526H31.6493H31.6459H31.6426H31.6393H31.6359H31.6326H31.6292H31.6259H31.6225H31.6192H31.6158H31.6125H31.6091H31.6058H31.6024H31.5991H31.5957H31.5924H31.589H31.5857H31.5823H31.579H31.5756H31.5722H31.5689H31.5655H31.5622H31.5588H31.5554H31.5521H31.5487H31.5454H31.542H31.5386H31.5353H31.5319H31.5285H31.5252H31.5218H31.5184H31.5151H31.5117H31.5083H31.5049H31.5016H31.4982H31.4948H31.4914H31.4881H31.4847H31.4813H31.4779H31.4745H31.4712H31.4678H31.4644H31.461H31.4576H31.4542H31.4509H31.4475H31.4441H31.4407H31.4373H31.4339H31.4305H31.4271H31.4237H31.4203H31.4169H31.4135H31.4101H31.4067H31.4033H31.3999H31.3965H31.3931H31.3897H31.3863H31.3829H31.3795H31.3761H31.3727H31.3693H31.3659H31.3624H31.359H31.3556H31.3522H31.3488H31.3454H31.3419H31.3385H31.3351H31.3317H31.3282H31.3248H31.3214H31.318H31.3145H31.3111H31.3077H31.3042H31.3008H31.2974H31.2939H31.2905H31.287H31.2836H31.2802H31.2767H31.2733H31.2698H31.2664H31.2629H31.2595H31.256H31.2526H31.2491H31.2457H31.2422H31.2387H31.2353H31.2318H31.2284H31.2249H31.2214H31.218H31.2145H31.211H31.2075H31.2041H31.2006H31.1971H31.1936H31.1902H31.1867H31.1832H31.1797H31.1762H31.1727H31.1693H31.1658H31.1623H31.1588H31.1553H31.1518H31.1483H31.1448H31.1413H31.1378H31.1343H31.1308H31.1273H31.1238H31.1203H31.1168H31.1133H31.1097H31.1062H31.1027H31.0992H31.0957H31.0921H31.0886H31.0851H31.0816H31.078H31.0745H31.0733C30.6174 65.6032 30.166 65.5383 29.7171 65.4738C28.8159 65.3443 27.9245 65.2162 27.026 65.0224L27.026 65.0223L27.0209 65.0213C24.0222 64.4392 21.0978 63.4203 18.3984 62.0376Z" fill="#FCDC02" stroke="#D7D8D9" stroke-width="0.5"/>
<path d="M0.396344 36.2513L0.389494 36.2167L0.373355 36.1854C0.350287 36.1406 0.337296 36.0938 0.317653 36.0175C0.317062 36.0152 0.316464 36.0129 0.315857 36.0105C0.301505 35.9547 0.282781 35.8819 0.25 35.8047V35.8017V35.7983V35.7949V35.7915V35.7881V35.7847V35.7813V35.7779V35.7745V35.7711V35.7677V35.7643V35.7609V35.7575V35.7541V35.7507V35.7473V35.7439V35.7406V35.7372V35.7338V35.7304V35.727V35.7237V35.7203V35.7169V35.7135V35.7102V35.7068V35.7034V35.7001V35.6967V35.6933V35.69V35.6866V35.6833V35.6799V35.6765V35.6732V35.6698V35.6665V35.6631V35.6598V35.6564V35.6531V35.6497V35.6464V35.643V35.6397V35.6364V35.633V35.6297V35.6263V35.623V35.6197V35.6163V35.613V35.6097V35.6063V35.603V35.5997V35.5963V35.593V35.5897V35.5864V35.5831V35.5797V35.5764V35.5731V35.5698V35.5665V35.5631V35.5598V35.5565V35.5532V35.5499V35.5466V35.5433V35.54V35.5367V35.5333V35.53V35.5267V35.5234V35.5201V35.5168V35.5135V35.5102V35.5069V35.5036V35.5003V35.497V35.4938V35.4905V35.4872V35.4839V35.4806V35.4773V35.474V35.4707V35.4674V35.4642V35.4609V35.4576V35.4543V35.451V35.4477V35.4445V35.4412V35.4379V35.4346V35.4313V35.4281V35.4248V35.4215V35.4182V35.415V35.4117V35.4084V35.4052V35.4019V35.3986V35.3954V35.3921V35.3888V35.3856V35.3823V35.379V35.3758V35.3725V35.3692V35.366V35.3627V35.3595V35.3562V35.3529V35.3497V35.3464V35.3432V35.3399V35.3367V35.3334V35.3301V35.3269V35.3236V35.3204V35.3171V35.3139V35.3106V35.3074V35.3041V35.3009V35.2976V35.2944V35.2911V35.2879V35.2847V35.2814V35.2782V35.2749V35.2717V35.2684V35.2652V35.262V35.2587V35.2555V35.2522V35.249V35.2458V35.2425V35.2393V35.236V35.2328V35.2296V35.2263V35.2231V35.2199V35.2166V35.2134V35.2101V35.2069V35.2037V35.2004V35.1972V35.194V35.1907V35.1875V35.1843V35.1811V35.1778V35.1746V35.1714V35.1681V35.1649V35.1617V35.1584V35.1552V35.152V35.1488V35.1455V35.1423V35.1391V35.1358V35.1326V35.1294V35.1262V35.1229V35.1197V35.1165V35.1133V35.11V35.1068V35.1036V35.1004V35.0971V35.0939V35.0907V35.0875V35.0842V35.081V35.0778V35.0746V35.0713V35.0681V35.0649V35.0617V35.0584V35.0552V35.052V35.0488V35.0456V35.0423V35.0391V35.0359V35.0327V35.0294V35.0262V35.023V35.0198V35.0166V35.0133V35.0101V35.0069V35.0037V35.0004V34.9972V34.994V34.9908V34.9875V34.9843V34.9811V34.9779V34.9747V34.9714V34.9682V34.965V34.9618V34.9585V34.9553V34.9521V34.9489V34.9456V34.9424V34.9392V34.936V34.9327V34.9295V34.9263V34.9231V34.9198V34.9166V34.9134V34.9102V34.9069V34.9037V34.9005V34.8973V34.894V34.8908V34.8876V34.8843V34.8811V34.8779V34.8747V34.8714V34.8682V34.865V34.8617V34.8585V34.8553V34.8521V34.8488V34.8456V34.8424V34.8391V34.8359V34.8327V34.8294V34.8262V34.823V34.8197V34.8165V34.8133V34.81V34.8068V34.8035V34.8003V34.7971V34.7938V34.7906V34.7874V34.7841V34.7809V34.7776V34.7744V34.7712V34.7679V34.7647V34.7614V34.7582V34.7549V34.7517V34.7484V34.7452V34.742V34.7387V34.7355V34.7322V34.729V34.7257V34.7225V34.7192V34.716V34.7127V34.7095V34.7062V34.703V34.6997V34.6964V34.6932V34.6899V34.6867V34.6834V34.6802V34.6769V34.6736V34.6704V34.6671V34.6639V34.6606V34.6573V34.6541V34.6508V34.6475V34.6443V34.641V34.6378V34.6345V34.6312V34.6279V34.6247V34.6214V34.6181V34.6149V34.6116V34.6083V34.605V34.6018V34.5985V34.5952V34.5919V34.5886V34.5854V34.5821V34.5788V34.5755V34.5722V34.569V34.5657V34.5624V34.5591V34.5558V34.5525V34.5492V34.5459V34.5426V34.5393V34.5361V34.5328V34.5295V34.5262V34.5229V34.5196V34.5163V34.513V34.5097V34.5064V34.5031V34.4998V34.4965V34.4931V34.4898V34.4865V34.4832V34.4799V34.4766V34.4733V34.47V34.4666V34.4633V34.46V34.4567V34.4534V34.4501V34.4467V34.4434V34.4401V34.4368V34.4334V34.4301V34.4268V34.4234V34.4232H0.261198H0.287318H0.313438H0.339557H0.365677H0.391797H0.417917H0.444036H0.470156H0.496276H0.522396H0.548516H0.574635H0.600755H0.626875H0.652995H0.679115H0.705234H0.731354H0.757474H0.783594H0.809714H0.835833H0.861953H0.888073H0.914193H0.940313H0.966432H0.992552H1.01867H1.04479H1.07091H1.09703H1.12315H1.14927H1.17539H1.20151H1.22763H1.25375H1.27987H1.30599H1.33211H1.35823H1.38435H1.41047H1.43659H1.46271H1.48883H1.51495H1.54107H1.56719H1.59331H1.61943H1.64555H1.67167H1.69779H1.72391H1.75003H1.77615H1.80227H1.82839H1.85451H1.88063H1.90674H1.93286H1.95898H1.9851H2.01122H2.03734H2.06346H2.08958H2.1157H2.14182H2.16794H2.19406H2.22018H2.2463H2.27242H2.29854H2.32466H2.35078H2.3769H2.40302H2.42914H2.45526H2.48138H2.5075H2.53362H2.55974H2.58586H2.61198H2.6381H2.66422H2.69034H2.71646H2.74258H2.7687H2.79482H2.82094H2.84706H2.87318H2.8993H2.92542H2.95154H2.97766H3.00378H3.0299H3.05602H3.08214H3.10826H3.13438H3.1605H3.18661H3.21273H3.23885H3.26497H3.29109H3.31721H3.34333H3.36945H3.39557H3.42169H3.44781H3.47393H3.50005H3.52617H3.55229H3.57841H3.60453H3.63065H3.65677H3.68289H3.70901H3.73513H3.76125H3.78737H3.81349H3.83961H3.86573H3.89185H3.91797H3.94409H3.97021H3.99633H4.02245H4.04857H4.07469H4.10081H4.12693H4.15305H4.17917H4.20529H4.23141H4.25753H4.28365H4.30977H4.33589H4.36201H4.38813H4.41425H4.44036H4.46648H4.4926H4.51872H4.54484H4.57096H4.59708H4.6232H4.64932H4.67544H4.70156H4.72768H4.7538H4.77992H4.80604H4.83216H4.85828H4.8844H4.91052H4.93664H4.96276H4.98888H5.015H5.04112H5.06724H5.09336H5.11948H5.1456H5.17172H5.19784H5.22396H5.25008H5.2762H5.30232H5.32844H5.35456H5.38068H5.4068H5.43292H5.45904H5.48516H5.51128H5.5374H5.56352H5.58964H5.61576H5.64188H5.66799H5.69412H5.72023H5.74635H5.77247H5.79859H5.82471H5.85083H5.87695H5.90307H5.92919H5.95531H5.98143H6.00755H6.03367H6.05979H6.08591H6.11203H6.13815H6.16427H6.19039H6.21651H6.24263H6.26875H6.29487H6.32099H6.34711H6.37323H6.39935H6.42547H6.45159H6.47771H6.50383H6.52995H6.55607H6.58219H6.60831H6.63443H6.66055H6.68667H6.71279H6.73891H6.76503H6.79115H6.81727H6.84339H6.86951H6.89563H6.92175H6.94787H6.97398H7.0001H7.02622H7.05234H7.07846H7.10458H7.1307H7.15682H7.18294H7.20906H7.23518H7.2613H7.28742H7.31354H7.33966H7.36578H7.3919H7.41802H7.44414H7.47026H7.49638H7.5225H7.54862H7.57474H7.60086H7.62698H7.6531H7.67922H7.70534H7.73146H7.75758H7.7837H7.80982H7.83594H7.86206H7.88818H7.9143H7.94042H7.96654H7.99266H8.01878H8.0449H8.07102H8.09714H8.12326H8.14938H8.1755H8.20162H8.22773H8.25385H8.27997H8.30609H8.33221H8.35833H8.38445H8.41057H8.43669H8.46281H8.48893H8.51505H8.54117H8.56729H8.59341H8.61953H8.64565H8.67177H8.69789H8.72401H8.75013H8.77625H8.80237H8.82849H8.85461H8.88073H8.90685H8.93297H8.95909H8.98521H9.01133H9.03745H9.06357H9.08969H9.11581H9.14193H9.16805H9.19417H9.22029H9.24641H9.27253H9.29865H9.32477H9.35089H9.37701H9.40313H9.42924H9.45537H9.48149H9.5076H9.53372H9.55984H9.58596H9.61208H9.6382H9.66432H9.69044H9.71656H9.74268H9.7688H9.79492H9.82104H9.84716H9.87328H9.8994H9.92552H9.95164H9.97776H10.0039H10.03H10.0561H10.0822H10.1084H10.1345H10.1606H10.1867H10.2128H10.239H10.2651H10.2912H10.3173H10.3434H10.3696H10.3957H10.4218H10.4479H10.474H10.5002H10.5263H10.5524H10.5785H10.6046H10.6308H10.6569H10.683H10.7091H10.7352H10.7614H10.7875H10.8136H10.8397H10.8658H10.892H10.9181H10.9442H10.9703H10.9964H11.0226H11.0487H11.0748H11.1009H11.127H11.1532H11.1793H11.2054H11.2315H11.2576H11.2838H11.3099H11.336H11.3621H11.3882H11.4143H11.4405H11.4666H11.4927H11.5188H11.5449H11.5711H11.5972H11.6233H11.6494H11.6755H11.7017H11.7278H11.7539H11.78H11.8061H11.8323H11.8584H11.8845H11.9106H11.9367H11.9629H11.989H12.0151H12.0412H12.0673H12.0935H12.1196H12.1457H12.1718H12.1979H12.2241H12.2502H12.2763H12.3024H12.3285H12.3547H12.3808H12.4069H12.433H12.4591H12.4853H12.5114H12.5375H12.5636H12.5897H12.6159H12.642H12.6681H12.6942H12.7203H12.7465H12.7726H12.7987H12.8248H12.8509H12.8771H12.9032H12.9293H12.9554H12.9815H13.0077H13.0338H13.0599H13.086H13.1121H13.1378C13.3106 37.0737 13.9646 39.5338 15.2289 41.9235C13.3737 42.9815 11.5183 44.0231 9.66206 45.0652L9.66198 45.0653C7.80821 46.106 5.9536 47.1472 4.09885 48.2049C2.96053 46.1671 2.10366 44.1281 1.52605 41.9556L1.52606 41.9556L1.52535 41.9531C1.17596 40.6935 0.961581 39.4444 0.744755 38.1811C0.635158 37.5425 0.524937 36.9003 0.396344 36.2513Z" fill="#FCDC02" stroke="#D7D8D9" stroke-width="0.5"/>
<path d="M67.6026 29.8156L67.6091 29.8536L67.6267 29.8878C67.6541 29.941 67.6621 29.9681 67.6671 30.0069C67.674 30.0605 67.6745 30.1328 67.6745 30.2867V30.2901V30.2935V30.297V30.3004V30.3038V30.3073V30.3107V30.3141V30.3175V30.321V30.3244V30.3278V30.3312V30.3346V30.338V30.3415V30.3449V30.3483V30.3517V30.3551V30.3585V30.3619V30.3653V30.3687V30.3721V30.3755V30.3789V30.3823V30.3857V30.3891V30.3925V30.3958V30.3992V30.4026V30.406V30.4094V30.4128V30.4161V30.4195V30.4229V30.4263V30.4296V30.433V30.4364V30.4398V30.4431V30.4465V30.4499V30.4532V30.4566V30.4599V30.4633V30.4667V30.47V30.4734V30.4767V30.4801V30.4834V30.4868V30.4901V30.4935V30.4968V30.5002V30.5035V30.5069V30.5102V30.5135V30.5169V30.5202V30.5236V30.5269V30.5302V30.5336V30.5369V30.5402V30.5436V30.5469V30.5502V30.5535V30.5569V30.5602V30.5635V30.5668V30.5701V30.5735V30.5768V30.5801V30.5834V30.5867V30.59V30.5934V30.5967V30.6V30.6033V30.6066V30.6099V30.6132V30.6165V30.6198V30.6231V30.6264V30.6297V30.633V30.6363V30.6396V30.6429V30.6462V30.6495V30.6528V30.6561V30.6594V30.6627V30.666V30.6693V30.6725V30.6758V30.6791V30.6824V30.6857V30.689V30.6923V30.6955V30.6988V30.7021V30.7054V30.7087V30.7119V30.7152V30.7185V30.7218V30.725V30.7283V30.7316V30.7349V30.7381V30.7414V30.7447V30.7479V30.7512V30.7545V30.7577V30.761V30.7643V30.7675V30.7708V30.7741V30.7773V30.7806V30.7838V30.7871V30.7904V30.7936V30.7969V30.8001V30.8034V30.8066V30.8099V30.8132V30.8164V30.8197V30.8229V30.8262V30.8294V30.8327V30.8359V30.8392V30.8424V30.8457V30.8489V30.8522V30.8554V30.8587V30.8619V30.8651V30.8684V30.8716V30.8749V30.8781V30.8814V30.8846V30.8878V30.8911V30.8943V30.8976V30.9008V30.904V30.9073V30.9105V30.9138V30.917V30.9202V30.9235V30.9267V30.9299V30.9332V30.9364V30.9396V30.9429V30.9461V30.9493V30.9526V30.9558V30.959V30.9623V30.9655V30.9687V30.972V30.9752V30.9784V30.9817V30.9849V30.9881V30.9913V30.9946V30.9978V31.001V31.0043V31.0075V31.0107V31.0139V31.0172V31.0204V31.0236V31.0268V31.0301V31.0333V31.0365V31.0397V31.043V31.0462V31.0494V31.0526V31.0559V31.0591V31.0623V31.0655V31.0688V31.072V31.0752V31.0784V31.0817V31.0849V31.0881V31.0913V31.0946V31.0978V31.101V31.1042V31.1074V31.1107V31.1139V31.1171V31.1203V31.1236V31.1268V31.13V31.1332V31.1364V31.1397V31.1429V31.1461V31.1493V31.1526V31.1558V31.159V31.1622V31.1655V31.1687V31.1719V31.1751V31.1783V31.1816V31.1848V31.188V31.1912V31.1945V31.1977V31.2009V31.2041V31.2074V31.2106V31.2138V31.217V31.2203V31.2235V31.2267V31.2299V31.2332V31.2364V31.2396V31.2428V31.2461V31.2493V31.2525V31.2558V31.259V31.2622V31.2654V31.2687V31.2719V31.2751V31.2784V31.2816V31.2848V31.288V31.2913V31.2945V31.2977V31.301V31.3042V31.3074V31.3107V31.3139V31.3171V31.3204V31.3236V31.3268V31.3301V31.3333V31.3365V31.3398V31.343V31.3463V31.3495V31.3527V31.356V31.3592V31.3624V31.3657V31.3689V31.3722V31.3754V31.3786V31.3819V31.3851V31.3884V31.3916V31.3949V31.3981V31.4014V31.4046V31.4078V31.4111V31.4143V31.4176V31.4208V31.4241V31.4273V31.4306V31.4338V31.4371V31.4403V31.4436V31.4469V31.4501V31.4534V31.4566V31.4599V31.4631V31.4664V31.4696V31.4729V31.4762V31.4794V31.4827V31.486V31.4892V31.4925V31.4957V31.499V31.5023V31.5055V31.5088V31.5121V31.5153V31.5186V31.5219V31.5252V31.5284V31.5317V31.535V31.5382V31.5415V31.5448V31.5481V31.5514V31.5546V31.5579V31.5612V31.5645V31.5678V31.571V31.5743V31.5776V31.5809V31.5842V31.5875V31.5907V31.594V31.5973V31.6006V31.6039V31.6072V31.6105V31.6138V31.6171V31.6204V31.6237V31.627V31.6303V31.6336V31.6369V31.6402V31.6435V31.6468V31.6501V31.6534V31.6567V31.66V31.6633V31.6667V31.67V31.6733V31.6766V31.6799V31.6832V31.6865V31.6899V31.6932V31.6965V31.6998V31.7031V31.7065V31.7098V31.7131V31.7165V31.7198V31.7231V31.7233H67.6634H67.6373H67.6112H67.5851H67.559H67.5329H67.5068H67.4807H67.4546H67.4285H67.4024H67.3764H67.3503H67.3242H67.2981H67.272H67.246H67.2199H67.1938H67.1677H67.1417H67.1156H67.0895H67.0635H67.0374H67.0113H66.9853H66.9592H66.9332H66.9071H66.8811H66.855H66.829H66.8029H66.7769H66.7508H66.7248H66.6987H66.6727H66.6466H66.6206H66.5946H66.5685H66.5425H66.5165H66.4904H66.4644H66.4384H66.4124H66.3863H66.3603H66.3343H66.3083H66.2822H66.2562H66.2302H66.2042H66.1782H66.1522H66.1262H66.1002H66.0742H66.0482H66.0221H65.9961H65.9701H65.9441H65.9181H65.8922H65.8662H65.8402H65.8142H65.7882H65.7622H65.7362H65.7102H65.6842H65.6583H65.6323H65.6063H65.5803H65.5543H65.5284H65.5024H65.4764H65.4504H65.4245H65.3985H65.3725H65.3466H65.3206H65.2946H65.2687H65.2427H65.2168H65.1908H65.1649H65.1389H65.1129H65.087H65.061H65.0351H65.0091H64.9832H64.9573H64.9313H64.9054H64.8794H64.8535H64.8275H64.8016H64.7757H64.7497H64.7238H64.6979H64.6719H64.646H64.6201H64.5942H64.5682H64.5423H64.5164H64.4905H64.4645H64.4386H64.4127H64.3868H64.3609H64.335H64.309H64.2831H64.2572H64.2313H64.2054H64.1795H64.1536H64.1277H64.1018H64.0759H64.05H64.0241H63.9982H63.9723H63.9464H63.9205H63.8946H63.8687H63.8428H63.8169H63.7911H63.7652H63.7393H63.7134H63.6875H63.6616H63.6357H63.6099H63.584H63.5581H63.5322H63.5064H63.4805H63.4546H63.4287H63.4029H63.377H63.3511H63.3253H63.2994H63.2735H63.2477H63.2218H63.1959H63.1701H63.1442H63.1184H63.0925H63.0667H63.0408H63.0149H62.9891H62.9632H62.9374H62.9115H62.8857H62.8598H62.834H62.8082H62.7823H62.7565H62.7306H62.7048H62.6789H62.6531H62.6273H62.6014H62.5756H62.5498H62.5239H62.4981H62.4723H62.4464H62.4206H62.3948H62.3689H62.3431H62.3173H62.2915H62.2656H62.2398H62.214H62.1882H62.1624H62.1365H62.1107H62.0849H62.0591H62.0333H62.0075H61.9817H61.9558H61.93H61.9042H61.8784H61.8526H61.8268H61.801H61.7752H61.7494H61.7236H61.6978H61.672H61.6462H61.6204H61.5946H61.5688H61.543H61.5172H61.4914H61.4656H61.4398H61.414H61.3882H61.3624H61.3366H61.3108H61.2851H61.2593H61.2335H61.2077H61.1819H61.1561H61.1303H61.1046H61.0788H61.053H61.0272H61.0014H60.9757H60.9499H60.9241H60.8983H60.8726H60.8468H60.821H60.7952H60.7695H60.7437H60.7179H60.6922H60.6664H60.6406H60.6149H60.5891H60.5633H60.5376H60.5118H60.486H60.4603H60.4345H60.4088H60.383H60.3572H60.3315H60.3057H60.28H60.2542H60.2284H60.2027H60.1769H60.1512H60.1254H60.0997H60.0739H60.0482H60.0224H59.9967H59.9709H59.9452H59.9194H59.8937H59.8679H59.8422H59.8165H59.7907H59.765H59.7392H59.7135H59.6877H59.662H59.6363H59.6105H59.5848H59.5591H59.5333H59.5076H59.4818H59.4561H59.4304H59.4046H59.3789H59.3532H59.3274H59.3017H59.276H59.2502H59.2245H59.1988H59.1731H59.1473H59.1216H59.0959H59.0702H59.0444H59.0187H58.993H58.9673H58.9415H58.9158H58.8901H58.8644H58.8386H58.8129H58.7872H58.7615H58.7358H58.71H58.6843H58.6586H58.6329H58.6072H58.5815H58.5557H58.53H58.5043H58.4786H58.4529H58.4272H58.4015H58.3758H58.35H58.3243H58.2986H58.2729H58.2472H58.2215H58.1958H58.1701H58.1444H58.1187H58.093H58.0672H58.0415H58.0158H57.9901H57.9644H57.9387H57.913H57.8873H57.8616H57.8359H57.8102H57.7845H57.7588H57.7331H57.7074H57.6817H57.656H57.6303H57.6046H57.5789H57.5532H57.5275H57.5018H57.4761H57.4504H57.4247H57.399H57.3733H57.3476H57.3219H57.2962H57.2706H57.2449H57.2192H57.1935H57.1678H57.1421H57.1164H57.0907H57.065H57.0393H57.0136H56.9879H56.9622H56.9366H56.9109H56.8852H56.8595H56.8338H56.8081H56.7824H56.7567H56.731H56.7054H56.6797H56.654H56.6283H56.6026H56.5769H56.5512H56.5256H56.4999H56.4742H56.4485H56.4228H56.3971H56.3714H56.3458H56.3201H56.2944H56.2687H56.243H56.2173H56.1917H56.166H56.1403H56.1146H56.0889H56.0633H56.0376H56.0119H55.9862H55.9605H55.9348H55.9092H55.8835H55.8578H55.8321H55.8064H55.7808H55.7551H55.7294H55.7037H55.678H55.6524H55.6267H55.601H55.5753H55.5496H55.524H55.4983H55.4726H55.4469H55.4213H55.3956H55.3699H55.3442H55.3185H55.2929H55.2672H55.2415H55.2158H55.1902H55.1645H55.1388H55.1131H55.0874H55.0618H55.0361H55.0104H54.9847H54.9591H54.9334H54.9077H54.9047C54.8102 31.2693 54.7302 30.8233 54.6503 30.3784C54.6208 30.2136 54.5912 30.0489 54.561 29.8841C54.4378 29.213 54.3039 28.5433 54.1115 27.8712C53.9201 27.2023 53.6908 26.5536 53.4545 25.9022C53.4167 25.798 53.3787 25.6938 53.3407 25.5894C53.1627 25.1007 52.9833 24.6082 52.8129 24.0971C54.1331 23.3544 55.463 22.6111 56.7992 21.8644C59.1537 20.5486 61.5274 19.222 63.9006 17.8687C65.1155 20.0569 66.0453 22.3096 66.6242 24.6273L66.6241 24.6273L66.6253 24.6316C66.9659 25.8989 67.1766 27.2044 67.3914 28.5348C67.4599 28.9593 67.5289 29.3864 67.6026 29.8156Z" fill="#FCDC02" stroke="#D7D8D9" stroke-width="0.5"/>
<path d="M55.1157 34.4201L55.1355 34.4233H55.1556H55.1804H55.2052H55.23H55.2548H55.2796H55.3044H55.3292H55.354H55.3788H55.4036H55.4284H55.4532H55.478H55.5028H55.5277H55.5525H55.5773H55.6021H55.6269H55.6518H55.6766H55.7014H55.7262H55.7511H55.7759H55.8007H55.8256H55.8504H55.8753H55.9001H55.9249H55.9498H55.9746H55.9995H56.0243H56.0492H56.074H56.0989H56.1237H56.1486H56.1735H56.1983H56.2232H56.248H56.2729H56.2978H56.3227H56.3475H56.3724H56.3973H56.4221H56.447H56.4719H56.4968H56.5217H56.5465H56.5714H56.5963H56.6212H56.6461H56.671H56.6959H56.7208H56.7457H56.7705H56.7954H56.8203H56.8452H56.8701H56.8951H56.92H56.9449H56.9698H56.9947H57.0196H57.0445H57.0694H57.0943H57.1193H57.1442H57.1691H57.194H57.2189H57.2439H57.2688H57.2937H57.3186H57.3436H57.3685H57.3934H57.4184H57.4433H57.4682H57.4932H57.5181H57.5431H57.568H57.5929H57.6179H57.6428H57.6678H57.6927H57.7177H57.7426H57.7676H57.7926H57.8175H57.8425H57.8674H57.8924H57.9173H57.9423H57.9673H57.9922H58.0172H58.0422H58.0672H58.0921H58.1171H58.1421H58.167H58.192H58.217H58.242H58.267H58.2919H58.3169H58.3419H58.3669H58.3919H58.4169H58.4419H58.4669H58.4918H58.5168H58.5418H58.5668H58.5918H58.6168H58.6418H58.6668H58.6918H58.7168H58.7418H58.7668H58.7919H58.8169H58.8419H58.8669H58.8919H58.9169H58.9419H58.9669H58.992H59.017H59.042H59.067H59.092H59.1171H59.1421H59.1671H59.1921H59.2172H59.2422H59.2672H59.2923H59.3173H59.3423H59.3674H59.3924H59.4174H59.4425H59.4675H59.4926H59.5176H59.5426H59.5677H59.5927H59.6178H59.6428H59.6679H59.6929H59.718H59.743H59.7681H59.7931H59.8182H59.8432H59.8683H59.8934H59.9184H59.9435H59.9685H59.9936H60.0187H60.0437H60.0688H60.0939H60.1189H60.144H60.1691H60.1941H60.2192H60.2443H60.2694H60.2944H60.3195H60.3446H60.3697H60.3948H60.4198H60.4449H60.47H60.4951H60.5202H60.5453H60.5703H60.5954H60.6205H60.6456H60.6707H60.6958H60.7209H60.746H60.7711H60.7962H60.8213H60.8464H60.8715H60.8966H60.9217H60.9468H60.9719H60.997H61.0221H61.0472H61.0723H61.0974H61.1225H61.1476H61.1727H61.1978H61.2229H61.2481H61.2732H61.2983H61.3234H61.3485H61.3736H61.3988H61.4239H61.449H61.4741H61.4992H61.5244H61.5495H61.5746H61.5997H61.6249H61.65H61.6751H61.7002H61.7254H61.7505H61.7756H61.8008H61.8259H61.851H61.8762H61.9013H61.9264H61.9516H61.9767H62.0018H62.027H62.0521H62.0773H62.1024H62.1275H62.1527H62.1778H62.203H62.2281H62.2533H62.2784H62.3036H62.3287H62.3539H62.379H62.4042H62.4293H62.4545H62.4796H62.5048H62.5299H62.5551H62.5802H62.6054H62.6306H62.6557H62.6809H62.706H62.7312H62.7564H62.7815H62.8067H62.8318H62.857H62.8822H62.9073H62.9325H62.9577H62.9828H63.008H63.0332H63.0583H63.0835H63.1087H63.1338H63.159H63.1842H63.2094H63.2345H63.2597H63.2849H63.3101H63.3352H63.3604H63.3856H63.4108H63.436H63.4611H63.4863H63.5115H63.5367H63.5619H63.587H63.6122H63.6374H63.6626H63.6878H63.713H63.7381H63.7633H63.7885H63.8137H63.8389H63.8641H63.8893H63.9145H63.9397H63.9648H63.99H64.0152H64.0404H64.0656H64.0908H64.116H64.1412H64.1664H64.1916H64.2168H64.242H64.2672H64.2924H64.3176H64.3428H64.368H64.3932H64.4184H64.4436H64.4688H64.494H64.5192H64.5444H64.5696H64.5948H64.62H64.6452H64.6704H64.6956H64.7208H64.746H64.7712H64.7964H64.8216H64.8468H64.872H64.8973H64.9225H64.9477H64.9729H64.9981H65.0233H65.0485H65.0737H65.0989H65.1242H65.1494H65.1746H65.1998H65.225H65.2502H65.2754H65.3006H65.3259H65.3511H65.3763H65.4015H65.4267H65.4519H65.4772H65.5024H65.5276H65.5528H65.578H65.6033H65.6285H65.6537H65.6789H65.7041H65.7294H65.7546H65.7798H65.805H65.8302H65.8555H65.8807H65.9059H65.9311H65.9564H65.9816H66.0068H66.032H66.0572H66.0825H66.1077H66.1329H66.1581H66.1834H66.2086H66.2338H66.259H66.2843H66.3095H66.3347H66.36H66.3852H66.4104H66.4356H66.4609H66.4861H66.5113H66.5366H66.5618H66.587H66.6122H66.6375H66.6627H66.6879H66.7132H66.7384H66.7636H66.7888H66.8141H66.8393H66.8645H66.8898H66.915H66.9402H66.9655H66.9907H67.0159H67.0412H67.0664H67.0916H67.1169H67.1421H67.1673H67.1926H67.2178H67.243H67.2683H67.2935H67.3187H67.344H67.3692H67.3944H67.4197H67.4449H67.4701H67.4954H67.5206H67.5458H67.5711H67.5963H67.6215H67.6468H67.672H67.6972H67.7225H67.7477H67.75V34.425V34.4288V34.4326V34.4363V34.4401V34.4438V34.4476V34.4513V34.4551V34.4588V34.4626V34.4663V34.4701V34.4738V34.4776V34.4813V34.4851V34.4888V34.4925V34.4963V34.5V34.5037V34.5075V34.5112V34.5149V34.5187V34.5224V34.5261V34.5298V34.5336V34.5373V34.541V34.5447V34.5484V34.5522V34.5559V34.5596V34.5633V34.567V34.5707V34.5744V34.5781V34.5818V34.5856V34.5893V34.593V34.5967V34.6004V34.6041V34.6078V34.6114V34.6151V34.6188V34.6225V34.6262V34.6299V34.6336V34.6373V34.641V34.6446V34.6483V34.652V34.6557V34.6594V34.663V34.6667V34.6704V34.6741V34.6777V34.6814V34.6851V34.6887V34.6924V34.6961V34.6997V34.7034V34.7071V34.7107V34.7144V34.7181V34.7217V34.7254V34.729V34.7327V34.7363V34.74V34.7436V34.7473V34.7509V34.7546V34.7582V34.7619V34.7655V34.7692V34.7728V34.7764V34.7801V34.7837V34.7873V34.791V34.7946V34.7983V34.8019V34.8055V34.8091V34.8128V34.8164V34.82V34.8237V34.8273V34.8309V34.8345V34.8381V34.8418V34.8454V34.849V34.8526V34.8562V34.8598V34.8635V34.8671V34.8707V34.8743V34.8779V34.8815V34.8851V34.8887V34.8923V34.8959V34.8995V34.9031V34.9067V34.9103V34.9139V34.9175V34.9211V34.9247V34.9283V34.9319V34.9355V34.9391V34.9427V34.9463V34.9499V34.9535V34.957V34.9606V34.9642V34.9678V34.9714V34.975V34.9785V34.9821V34.9857V34.9893V34.9928V34.9964V35V35.0036V35.0071V35.0107V35.0143V35.0179V35.0214V35.025V35.0286V35.0321V35.0357V35.0393V35.0428V35.0464V35.0499V35.0535V35.0571V35.0606V35.0642V35.0677V35.0713V35.0749V35.0784V35.082V35.0855V35.0891V35.0926V35.0962V35.0997V35.1033V35.1068V35.1104V35.1139V35.1175V35.121V35.1245V35.1281V35.1316V35.1352V35.1387V35.1423V35.1458V35.1493V35.1529V35.1564V35.1599V35.1635V35.167V35.1705V35.1741V35.1776V35.1811V35.1847V35.1882V35.1917V35.1952V35.1988V35.2023V35.2058V35.2094V35.2129V35.2164V35.2199V35.2234V35.227V35.2305V35.234V35.2375V35.241V35.2446V35.2481V35.2516V35.2551V35.2586V35.2621V35.2656V35.2692V35.2727V35.2762V35.2797V35.2832V35.2867V35.2902V35.2937V35.2972V35.3007V35.3042V35.3077V35.3113V35.3148V35.3183V35.3218V35.3253V35.3288V35.3323V35.3358V35.3393V35.3428V35.3463V35.3498V35.3532V35.3567V35.3602V35.3637V35.3672V35.3707V35.3742V35.3777V35.3812V35.3847V35.3882V35.3917V35.3952V35.3986V35.4021V35.4056V35.4091V35.4126V35.4161V35.4196V35.4231V35.4265V35.43V35.4335V35.437V35.4405V35.4439V35.4474V35.4509V35.4544V35.4579V35.4613V35.4648V35.4683V35.4718V35.4753V35.4787V35.4822V35.4857V35.4892V35.4926V35.4961V35.4996V35.503V35.5065V35.51V35.5135V35.5169V35.5204V35.5239V35.5273V35.5308V35.5343V35.5378V35.5412V35.5447V35.5482V35.5516V35.5551V35.5585V35.562V35.5655V35.5689V35.5724V35.5759V35.5793V35.5828V35.5863V35.5897V35.5932V35.5966V35.6001V35.6036V35.607V35.6105V35.6139V35.6174V35.6209V35.6243V35.6278V35.6312V35.6347V35.6381V35.6416V35.6451V35.6485V35.652V35.6554V35.6589V35.6623V35.6658V35.6692V35.6727V35.6761V35.6796V35.683V35.6865V35.6899V35.6934V35.6969V35.7003V35.7038V35.7072V35.7107V35.7141V35.7176V35.721V35.7244V35.7279V35.7313V35.7348V35.7382V35.7417V35.7451V35.7486V35.752V35.7555V35.7589V35.7624V35.7658V35.7693V35.7727V35.7761V35.7796V35.783V35.7865V35.7899V35.7934V35.7968V35.8003V35.8037V35.8071V35.8106V35.814V35.8175V35.8209V35.8244V35.8278V35.8312V35.8347V35.8381V35.8416V35.845V35.8484V35.8519V35.8553V35.8588V35.8622V35.8656V35.8691V35.8725V35.876V35.8794V35.8828V35.8863V35.8897V35.8932V35.8966V35.9V35.9035V35.9069V35.9104V35.9138V35.9172V35.9207V35.9241V35.9276V35.931V35.9344V35.9379V35.9413V35.9447V35.9482V35.9516V35.9551V35.9585V35.9619V35.9654V35.9688V35.9722V35.9757V35.9791V35.9826V35.986V35.9894V35.9895C67.6756 36.5279 67.583 37.0494 67.4894 37.5762L67.489 37.5785C67.3952 38.107 67.3003 38.641 67.2242 39.1941C66.9629 40.6407 66.4206 42.4751 65.7824 44.1877C65.1844 45.7923 64.5093 47.2707 63.913 48.2154C61.8869 47.0959 59.8661 45.9597 57.867 44.8357C56.1884 43.8919 54.5251 42.9567 52.8866 42.0471C53.0572 41.5105 53.2361 40.9766 53.415 40.4427C53.7695 39.3845 54.1241 38.3262 54.4144 37.2462C54.6377 36.4509 54.7179 35.5904 54.79 34.8177C54.7929 34.7862 54.7958 34.7549 54.7988 34.7238C54.8163 34.6394 54.8318 34.5752 54.8498 34.5238C54.8685 34.4702 54.8848 34.446 54.895 34.4349C54.8951 34.4349 54.8952 34.4347 54.8953 34.4346C54.8994 34.4296 54.9318 34.3903 55.1157 34.4201Z" fill="#FCDC02" stroke="#D7D8D9" stroke-width="0.5"/>
<path d="M62.5796 50.5393C59.8004 54.666 56.3892 58.0412 52.1414 60.6688C51.0534 58.8714 49.9821 57.0738 48.9103 55.2754L48.9099 55.2747C47.8364 53.4734 46.7624 51.6712 45.6714 49.8689C47.8914 48.3784 49.8395 46.55 51.3822 44.258C53.2764 45.3188 55.1365 46.3631 56.9967 47.4075L56.9976 47.408C58.8471 48.4463 60.6966 49.4847 62.5796 50.5393Z" fill="#FCDC02" stroke="#D7D8D9" stroke-width="0.5"/>
<path d="M52.0675 5.25901C56.3151 7.88678 59.7262 11.2622 62.5052 15.3892C60.6571 16.4429 58.8089 17.4806 56.9598 18.5187L56.9595 18.5188C55.0997 19.5629 53.2391 20.6075 51.3784 21.6687C49.8391 19.4438 47.9537 17.6143 45.5967 16.0563C47.7763 12.4582 49.8883 8.92443 52.0675 5.25901Z" fill="#FCDC02" stroke="#D7D8D9" stroke-width="0.5"/>
<path d="M20.0451 12.2141C20.8116 13.5061 21.5749 14.7928 22.3386 16.0716C21.2648 16.9058 20.1864 17.7522 19.2436 18.6672C18.2999 19.5832 17.4262 20.5654 16.5571 21.6764C12.9167 19.6271 9.27371 17.5765 5.49316 15.4591C8.20268 11.3354 11.6823 7.95985 15.9342 5.3312C17.3269 7.63207 18.6909 9.93132 20.0451 12.2141Z" fill="#FCDC02" stroke="#D7D8D9" stroke-width="0.5"/>
<path d="M15.9324 60.741C11.6807 58.1121 8.20131 54.7363 5.49198 50.6123C7.34099 49.558 9.19015 48.5199 11.0401 47.4813L11.0404 47.4811C12.9002 46.437 14.7608 45.3924 16.6215 44.3313C18.1608 46.5562 20.0462 48.3856 22.4032 49.9436C20.2236 53.5418 18.1116 57.0755 15.9324 60.741Z" fill="#FCDC02" stroke="#D7D8D9" stroke-width="0.5"/>
<path d="M34.8026 28.5999L34.5249 28.8021C34.237 29.0117 34.0955 29.149 33.9482 29.2919L33.9475 29.2927L24.0497 38.8993C23.313 39.6144 22.7405 40.3843 22.4543 41.3533C22.325 41.8519 22.041 42.3085 21.788 42.7153C21.7213 42.8227 21.6567 42.9265 21.5977 43.0268L21.5806 43.0559L21.5564 43.0793C21.5369 43.0982 21.521 43.1137 21.5066 43.1286C21.4955 43.1401 21.4873 43.1492 21.4811 43.1566V43.2078L21.4262 43.2763C20.9815 43.8312 21.0402 44.5663 21.5564 45.0672L21.3822 45.2466L21.5564 45.0672L21.6319 45.1406C22.1375 45.6313 22.835 45.6449 23.4342 45.2589C23.5533 45.1762 23.6688 45.0894 23.7865 45.0011L23.8081 44.9848C23.9327 44.8912 24.0605 44.7958 24.1895 44.7091C24.4442 44.538 24.726 44.3853 25.0446 44.3398C26.1854 44.1309 27.1232 43.5061 27.9326 42.7206L27.9366 42.7166L27.9367 42.7166C29.977 40.8244 31.9596 38.9088 33.9552 36.9806C35.2849 35.6959 36.6204 34.4056 37.9826 33.1128C37.9829 33.1125 37.9832 33.1122 37.9835 33.1119L38.1556 33.2933C38.2034 33.2468 38.2513 33.2078 38.3015 33.1667C38.3669 33.1133 38.4364 33.0565 38.5152 32.9759L34.8026 28.5999ZM34.8026 28.5999L34.5249 28.3978C34.4581 28.3492 34.3909 28.3037 34.3306 28.2628C34.3189 28.2549 34.3075 28.2472 34.2963 28.2396C34.2253 28.1913 34.1671 28.1508 34.1195 28.1122C34.0393 28.0474 34.0253 28.0165 34.0233 28.0109V27.9075L33.9475 27.8339C33.6167 27.5128 33.6481 26.9432 34.023 26.5793L34.0312 26.5714L34.0386 26.5628C34.2788 26.283 34.5422 26.0421 34.828 25.7805C34.9814 25.6402 35.1412 25.494 35.3075 25.3327C35.6316 25.0181 35.8816 24.882 36.1269 24.8616C36.3752 24.8409 36.6764 24.9339 37.1131 25.2165L37.2802 25.3246L37.423 25.186L38.783 23.866L40.143 22.546C40.2114 22.4796 40.2788 22.4137 40.3455 22.3484C41.0288 21.6799 41.6385 21.0834 42.5441 20.7695L42.5441 20.7696L42.5497 20.7675C43.4522 20.4306 44.4213 20.5644 45.1846 21.101C45.9222 21.6741 46.7622 22.4288 46.9747 23.9414L46.9758 23.9493L46.9774 23.9571C47.0456 24.2881 47.0431 24.5286 46.9155 24.838L46.9119 24.8468L46.9089 24.8559C46.6975 25.5057 46.3262 26.0247 45.878 26.5042C45.5963 26.8055 45.2996 27.0768 44.9942 27.356C44.8003 27.5333 44.6029 27.7138 44.4037 27.9072C44.0665 28.2345 43.7102 28.5622 43.3508 28.8926L43.3494 28.8939C42.9914 29.223 42.6305 29.5549 42.2881 29.8872L42.1259 30.0447L42.2663 30.2219C42.6321 30.6834 42.7046 30.9546 42.661 31.1725C42.6123 31.4157 42.4084 31.6771 41.9859 32.0872L41.457 32.6006L40.9335 33.1087L34.8026 28.5999ZM35.2319 29.3739L35.0578 29.2049L34.8837 29.3739L34.8827 29.3748C31.4084 32.7469 27.8564 36.1945 24.3795 39.7157C23.7431 40.3341 23.3379 41.0388 23.1765 41.9006L23.1765 41.9006L23.1758 41.9043C23.1102 42.2868 22.9122 42.6838 22.6961 43.0368C22.5782 43.1557 22.4805 43.2885 22.3949 43.4048L22.3898 43.4118C22.2932 43.5431 22.2107 43.6541 22.1148 43.7472L22.0969 43.7646L22.0828 43.7851C21.9863 43.9256 21.9256 44.0841 21.9256 44.2474C21.9256 44.4158 21.9907 44.5722 22.1148 44.6927C22.2482 44.8221 22.4302 44.8733 22.5911 44.8733C22.752 44.8733 22.9341 44.8221 23.0675 44.6927L23.1433 44.619V44.599L23.1741 44.5804C23.2894 44.5104 23.402 44.4399 23.5128 44.3704C24.0108 44.0583 24.4736 43.7682 24.9861 43.6577L24.9861 43.6577L24.9923 43.6562C25.9434 43.4254 26.738 42.9631 27.3731 42.347C30.8494 39.0462 34.2501 35.7456 37.6496 32.4461L37.6497 32.446C37.7107 32.3868 37.7618 32.3097 37.7921 32.2606C37.8088 32.2336 37.8226 32.2094 37.8323 32.192L37.8439 32.1706L37.8473 32.1642L37.8483 32.1622L37.8487 32.1616L37.8488 32.1613L37.8489 32.1612L37.8489 32.1611L37.6267 32.0466L37.8489 32.1611L37.9338 31.9963L37.8008 31.8672L35.2319 29.3739Z" fill="#707072" stroke="#D7D8D9" stroke-width="0.5"/>
</svg>
